<?xml version="1.0" encoding="UTF-8"?>
<svg width="25px" height="25px" viewBox="0 0 25 25" version="1.1" xmlns="http://www.w3.org/2000/svg" xmlns:xlink="http://www.w3.org/1999/xlink">
    <!-- Generator: Sketch 52.4 (67378) - http://www.bohemiancoding.com/sketch -->
    <title>challenge OFF</title>
    <desc>Created with Sketch.</desc>
    <g id="challenge-OFF" stroke="none" stroke-width="1" fill="none" fill-rule="evenodd">
        <g id="flag-outline">
            <polyline id="Path" fill="#000000" opacity="0" points="25 25 0 25 0 0"></polyline>
            <path d="M21.8402798,5.06944444 C21.3044107,4.68331565 20.6165446,4.57583655 19.9884279,4.78009259 C19.1714796,5.00982108 18.3253582,5.11899804 17.4768538,5.10416667 C16.2229075,5.03610357 14.9934173,4.72971303 13.8541686,4.20138889 C12.4467827,3.55049986 10.9244635,3.1846712 9.37500198,3.125 C6.03009457,3.125 4.74537235,4.28240741 4.51389087,4.44444444 C4.29012216,4.66377117 4.16483865,4.96445159 4.16666864,5.27777778 L4.16666864,22.8009259 C4.16666864,23.4401444 4.68485759,23.9583333 5.32407605,23.9583333 C5.96329451,23.9583333 6.48148346,23.4401444 6.48148346,22.8009259 L6.48148346,17.8240741 C7.40373822,17.4709731 8.3882741,17.3095092 9.37500198,17.349537 C10.6289483,17.4176001 11.8584385,17.7239907 12.9976872,18.2523148 C14.4050731,18.9032038 15.9273923,19.2690325 17.4768538,19.3287037 C18.8721213,19.3813992 20.2601081,19.1038018 21.5277798,18.5185185 C22.2248879,18.1910432 22.674172,17.494653 22.6851872,16.724537 L22.6851872,6.72453704 C22.6843593,6.06948733 22.370329,5.45433219 21.8402798,5.06944444 Z M20.3703723,16.5393519 C19.4477803,16.891204 18.4635024,17.0526256 17.4768538,17.0138889 C16.2213563,16.9473596 14.9908582,16.6367865 13.8541686,16.099537 C12.444102,15.4580442 10.9229022,15.0964153 9.37500198,15.0347222 C8.39988517,15.0179219 7.42686043,15.1307928 6.48148346,15.3703704 L6.48148346,5.92592593 C7.40158297,5.56404674 8.38716078,5.39846967 9.37500198,5.43981481 C10.6304995,5.50634415 11.8609976,5.81691717 12.9976872,6.35416667 C14.4077538,6.99565951 15.9289536,7.35728841 17.4768538,7.41898148 C18.4525597,7.43338773 19.4257763,7.31660174 20.3703723,7.07175926 L20.3703723,16.5393519 Z" id="Shape" fill="#8B999F" fill-rule="nonzero"></path>
        </g>
    </g>
</svg>