<?xml version="1.0" encoding="UTF-8"?>
<svg width="530px" height="405px" viewBox="0 0 530 405" version="1.1" xmlns="http://www.w3.org/2000/svg" xmlns:xlink="http://www.w3.org/1999/xlink">
    <!-- Generator: Sketch 52.4 (67378) - http://www.bohemiancoding.com/sketch -->
    <title>Artboard Copy 2</title>
    <desc>Created with Sketch.</desc>
    <g id="Artboard-Copy-2" stroke="none" stroke-width="1" fill="none" fill-rule="evenodd">
        <path d="M166.828924,346 C239.534358,346 416.731937,341.352974 446.213678,256.577176 C475.695419,171.801379 428.59593,159.39126 381.865759,173.695842 C315.100518,194.133363 313.704932,229.038583 252.512095,246.5 C203.155224,260.584016 58,234.33254 58,279.095985 C58,318.757702 106.548563,346 166.828924,346 Z" id="Oval" fill-opacity="0.198624321" fill="#00A85D"></path>
        <g id="Group-2" transform="translate(26.000000, 24.000000)">
            <path d="M102.225393,79.3341544 C101.69196,78.94624 100.426405,78.8086914 99.8376454,78.6924864 C97.3903954,78.2100497 94.8693764,78 92.3744549,78 C84.6812583,78.0115189 76.8631417,78.7666814 69.297649,80.0737326 C64.4943162,80.9034289 58.6874473,83.6957348 53.9091681,82.1793115 C45.5847599,79.5370895 37.1716202,79.666846 29.2738193,83.4389321 C22.0531616,86.8881515 16.5716416,93.4389919 13.3727834,100.517328 C12.8901535,101.585871 10.9321447,105.518544 10.3778337,108.169574 C10.1408684,108.711638 9.91329811,109.257428 9.70799774,109.81135 C9.12550143,111.384012 8.60320336,112.984455 8.11778976,114.587948 C7.91040159,115.271964 7.38879945,116.78229 8.00818024,117.074326 C7.01856285,118.900742 6.14133871,120.783059 5.41060857,122.726357 C3.28557572,128.378049 0.962201833,134.577565 0.215465221,140.567708 C-0.061168333,142.785765 -0.0716073351,145.016696 0.185192115,147.239158 C0.312199973,148.337514 0.259656996,150.546424 1.00430581,151.381541 C2.58477072,153.153751 3.39622914,150.672793 3.21807017,149.491094 C1.85752024,140.484704 4.48466909,132.027155 7.59827543,123.561135 C9.61161095,118.08663 12.9197307,113.0783 16.6255764,108.542582 C19.6247017,104.871116 22.8420021,101.979884 26.9532291,99.5456788 C31.9806525,96.5690712 37.3556946,94.162647 42.6813255,91.7487694 C46.1839587,90.1605226 49.6907674,88.6149633 53.2911792,87.2465911 C54.0918507,86.9420191 55.3514902,86.1614473 56.2391534,86.1583982 C58.1164339,86.1516224 60.7766396,87.536934 62.5898943,88.0522334 C68.5540441,89.7478765 74.5943986,91.9188419 80.7582814,92.7847887 C84.7118794,93.3407428 88.4159853,92.714998 92.1134798,91.3977831 C92.4913717,91.2636223 93.1246712,90.9177179 93.900637,90.4237623 C96.6457465,89.3677543 99.2426223,88.0386818 101.50371,86.1214701 C102.806498,85.0166764 103.988541,83.589016 105.066542,82.2823036 C105.389107,81.8916789 105.531773,81.4437987 105.536645,81.0182787 C105.780917,80.8905549 105.94307,80.7414874 105.979606,80.5673494 C106.248585,79.2813032 103.795767,79.2575879 102.225393,79.3341544" id="Twisted-Leaf" fill-opacity="0.6" fill="#157E89" transform="translate(53.000000, 115.000000) scale(-1, 1) translate(-53.000000, -115.000000) "></path>
            <path d="M94.980481,0.659775373 C91.5695313,-0.0853801391 87.8033179,-0.0283494469 84.3288535,0.0331207603 C65.6953105,0.286514614 47.3974882,9.10851385 35.4888276,23.2046569 C25.3509016,35.2050073 22.5632336,50.1248511 20.5604261,65.2069079 C20.3618554,66.7043905 20.2767038,68.192311 20.1646806,69.6928671 C20.1406008,70.0149026 20.1046557,70.3021051 20.0662677,70.572574 C19.2786154,71.2767494 18.8654207,72.0977182 19.3316606,72.9996227 C17.5965223,76.796774 16.1287042,80.6902286 14.8692283,84.7059407 C11.1623418,96.5259785 7.39159173,108.570724 9.71441568,121 C10.2570826,114.160073 11.3986026,107.165788 12.7638201,100.438216 C12.842341,100.051978 12.9271436,99.6688136 13.0154361,99.2870153 C13.0245096,99.2467182 13.0328852,99.206421 13.0419587,99.1664654 C13.5252987,97.106189 14.1534663,95.1077242 14.9173878,93.1406776 C14.9254144,93.119163 14.933092,93.09799 14.9414675,93.0768169 C15.0423233,92.817959 15.1494608,92.5604671 15.2552023,92.3029753 C15.474014,91.769892 15.6987584,91.2378332 15.9371131,90.7085064 C16.0177279,90.5281938 16.0952019,90.3461737 16.1695351,90.1627876 C17.2817406,87.4369254 17.7514703,84.365464 18.7478138,81.545006 C18.9861685,80.9036668 19.2353416,80.2647182 19.4963801,79.6291846 C19.5117353,79.5919609 19.5274395,79.5547373 19.5431437,79.5175137 C20.2487852,77.8072759 21.028411,76.1178697 21.8527064,74.4462216 C22.3007992,74.1095014 22.5402008,73.2741896 22.9265239,72.5150326 C23.0064407,72.3654551 23.6311184,71.3679302 23.8171258,70.7931838 C24.3025597,69.8540556 24.7862487,68.9145859 25.2751725,67.9771653 C25.2605152,67.9826293 25.245858,67.9880933 25.2312007,67.9935573 C25.7204735,67.0933603 26.2111421,66.1969198 26.6979719,65.3042358 C26.8051094,65.1082141 26.9132938,64.9118509 27.0211292,64.7151463 C27.1959692,64.4019897 27.3708092,64.0891747 27.5453002,63.7770426 C29.1774888,60.8561833 30.9080904,57.9937206 32.7053475,55.1667741 C33.3467763,54.1579797 34.8791561,52.7113808 35.1729989,51.5786215 C35.1838174,51.5362754 35.1862603,51.4973442 35.1928909,51.4567056 C39.0927644,45.9793686 43.5824173,40.9272006 48.9665111,36.9241241 C48.3156597,37.6276165 46.9322952,40.015051 46.5665621,40.4876886 C45.4473769,41.9349705 44.2322217,43.2821925 43.0125298,44.6458066 C40.8282517,47.0885644 38.6956229,49.6088429 36.8006508,52.2739178 C33.3352599,57.1478223 30.3455314,62.2771696 27.5194755,67.5096502 C27.4926039,67.5403853 27.4632894,67.5694129 27.4378137,67.600831 C26.0174571,69.3517074 25.1233653,71.9979998 24.1008482,74.0009041 C28.147294,72.1267458 32.6215918,70.9058791 36.7744772,69.241744 C40.9158461,67.5827314 44.9444939,65.7352102 48.8338979,63.5656534 C54.0033678,60.6823592 59.3658246,57.4268287 64.2501762,53.7427143 C69.8474979,50.2706721 74.5510768,45.491705 78.7029153,40.4767606 C83.6151854,34.5431781 88.1170527,28.5576874 90.9012308,21.3530376 C92.2688911,17.8126952 93.3448025,14.1210677 93.9827416,10.3864112 C94.0106601,10.2235151 94.0462563,10.046959 94.0849933,9.8635729 C94.7375896,8.57372305 95.3210874,7.2548456 95.8107091,5.90557455 C96.5882409,3.76572834 98.424584,1.41176091 94.980481,0.659775373" id="Fill-10" fill="#C5E691" transform="translate(53.000000, 60.500000) scale(-1, 1) translate(-53.000000, -60.500000) "></path>
        </g>
        <g id="Group" transform="translate(120.000000, 45.000000)">
            <rect id="Name" fill="#DDE3E9" x="111" y="62" width="40" height="4.84615385" rx="2.42307692"></rect>
            <rect id="Name" fill="#DDE3E9" x="111" y="70" width="27.2" height="4.84615385" rx="2.42307692"></rect>
            <rect id="Name" fill="#DDE3E9" x="111" y="79" width="40" height="4.84615385" rx="2.42307692"></rect>
            <rect id="Name" fill="#DDE3E9" x="111" y="87" width="27.2" height="4.84615385" rx="2.42307692"></rect>
            <path d="M68,79.4138959 C68,67.6383945 58.5479,58 47,58 L47,79.4138959 L61.3514,95 C65.4338,91.1893972 68,85.5992997 68,79.4138959 Z" id="Value" fill="#F2F2F2" transform="translate(57.500000, 76.500000) scale(-1, 1) translate(-57.500000, -76.500000) "></path>
            <path d="M74.3852917,79 L53,79 C53,84.48205 55.255079,89.61865 58.8200071,93.3514 C62.7410004,97.4338 68.3247,100 74.3852917,100 C79.9679221,100 85.0779375,97.78555 89,94.28485 L74.3852917,79 Z" id="Value" fill="#AFB9C5" transform="translate(71.000000, 89.500000) scale(-1, 1) translate(-71.000000, -89.500000) "></path>
            <path d="M47,79 C47,67.4521 56.4521,58 68,58 L68,79 L47,79 Z M78.5,58 L70.1,76.9 L89,68.5 C87.131,63.6007 82.93415,59.869 78.5,58 Z" id="Value" fill="#C5CFD6" transform="translate(68.000000, 68.500000) scale(-1, 1) translate(-68.000000, -68.500000) "></path>
            <path d="M8,0 L183,0 C187.418278,-8.11624501e-16 191,3.581722 191,8 L191,269 C191,273.418278 187.418278,277 183,277 L8,277 C3.581722,277 5.41083001e-16,273.418278 0,269 L0,8 C-5.41083001e-16,3.581722 3.581722,8.11624501e-16 8,0 Z" id="Container" fill="#F2F2F2"></path>
            <path d="M8,0 L183,0 C187.418278,-8.11624501e-16 191,3.581722 191,8 L191,22 L0,22 L0,8 C-5.41083001e-16,3.581722 3.581722,8.11624501e-16 8,0 Z" id="Header" fill="#C5CFD6"></path>
            <g id="Buttons" transform="translate(9.000000, 10.000000)" fill="#F2F2F2">
                <circle id="buttons" cx="4" cy="4" r="4"></circle>
                <circle id="buttons" cx="16" cy="4" r="4"></circle>
                <circle id="buttons" cx="28" cy="4" r="4"></circle>
            </g>
            <g id="Rows" transform="translate(16.000000, 44.000000)">
                <g id="Row" fill="#FFFFFF">
                    <path d="M4,-1.70530257e-13 L154,-1.70530257e-13 C156.209139,-1.86632946e-13 158,1.790861 158,4 L158,68.3333333 C158,70.5424723 156.209139,72.3333333 154,72.3333333 L4,72.3333333 C1.790861,72.3333333 2.705415e-16,70.5424723 0,68.3333333 L0,4 C-2.705415e-16,1.790861 1.790861,-1.70124444e-13 4,-1.70530257e-13 Z" id="Container"></path>
                </g>
                <g id="Text-Stuff" transform="translate(81.000000, 15.895745)" fill="#DDE3E9">
                    <rect id="Label" x="0" y="0.104255319" width="64" height="5" rx="2.5"></rect>
                    <rect id="Label" x="0" y="7.10425532" width="43" height="5" rx="2.5"></rect>
                </g>
                <g id="Text-Stuff" transform="translate(81.000000, 39.895745)" fill="#DDE3E9">
                    <rect id="Label" x="0" y="0.104255319" width="64" height="5" rx="2.5"></rect>
                    <rect id="Label" x="0" y="7.10425532" width="43" height="5" rx="2.5"></rect>
                </g>
            </g>
            <g id="Rows" transform="translate(16.000000, 124.000000)">
                <g id="Row" fill="#FFFFFF">
                    <path d="M4,-1.70530257e-13 L154,-1.70530257e-13 C156.209139,-1.86632946e-13 158,1.790861 158,4 L158,68.3333333 C158,70.5424723 156.209139,72.3333333 154,72.3333333 L4,72.3333333 C1.790861,72.3333333 2.705415e-16,70.5424723 0,68.3333333 L0,4 C-2.705415e-16,1.790861 1.790861,-1.70124444e-13 4,-1.70530257e-13 Z" id="Container"></path>
                </g>
                <g id="Graph" transform="translate(99.000000, 10.000000)">
                    <rect id="Value" fill="#DDE3E9" x="0" y="26" width="5" height="20" rx="2.5"></rect>
                    <rect id="Value" fill="#DDE3E9" x="11" y="13" width="5" height="33" rx="2.5"></rect>
                    <rect id="Value" fill="#DDE3E9" x="23" y="6" width="5" height="40" rx="2.5"></rect>
                    <rect id="Value" fill="#DDE3E9" x="34" y="13" width="5" height="33" rx="2.5"></rect>
                    <rect id="Value" fill="#C5CFD6" x="45" y="0" width="5" height="46" rx="2.5"></rect>
                </g>
                <g id="Text-Stuff" transform="translate(17.000000, 15.895745)" fill="#DDE3E9">
                    <rect id="Label" x="0" y="0.104255319" width="64" height="5" rx="2.5"></rect>
                    <rect id="Label" x="0" y="7.10425532" width="43" height="5" rx="2.5"></rect>
                </g>
                <g id="Text-Stuff" transform="translate(17.000000, 39.895745)" fill="#DDE3E9">
                    <rect id="Label" x="0" y="0.104255319" width="64" height="5" rx="2.5"></rect>
                    <rect id="Label" x="0" y="7.10425532" width="43" height="5" rx="2.5"></rect>
                </g>
            </g>
            <g id="Rows" transform="translate(16.000000, 204.000000)">
                <g id="Row" fill="#FFFFFF">
                    <path d="M4,-1.70530257e-13 L154,-1.70530257e-13 C156.209139,-1.70936069e-13 158,1.790861 158,4 L158,55.3333333 C158,57.5424723 156.209139,59.3333333 154,59.3333333 L4,59.3333333 C1.790861,59.3333333 4.19476067e-15,57.5424723 0,55.3333333 L0,4 C-2.705415e-16,1.790861 1.790861,-1.70124444e-13 4,-1.70530257e-13 Z" id="Container"></path>
                </g>
                <g id="Text-Stuff" transform="translate(81.000000, 13.000000)" fill="#DDE3E9">
                    <rect id="Label" x="0" y="0.0882160393" width="64" height="4.23076923" rx="2.11538462"></rect>
                    <rect id="Label" x="0" y="6.01129296" width="43" height="4.23076923" rx="2.11538462"></rect>
                </g>
            </g>
            <g id="Pie-Chart" transform="translate(57.000000, 229.000000) scale(-1, 1) translate(-57.000000, -229.000000) translate(39.000000, 211.000000)">
                <path d="M36,17.9413722 C36,8.07541164 27.4481,0 17,0 L17,17.9413722 L29.9846,31 C33.6782,27.8073328 36,23.1237376 36,17.9413722 Z" id="Value" fill="#F2F2F2"></path>
                <path d="M17.8210764,17 L0,17 C0,21.95995 1.87923251,26.60735 4.85000594,29.9846 C8.1175003,33.6782 12.7705833,36 17.8210764,36 C22.4732684,36 26.7316146,33.99645 30,30.82915 L17.8210764,17 Z" id="Value" fill="#AFB9C5"></path>
                <path d="M0,19 C0,8.5519 8.1018,0 18,0 L18,19 L0,19 Z M27,0 L19.8,17.1 L36,9.5 C34.398,5.0673 30.8007,1.691 27,0 Z" id="Value" fill="#C5CFD6"></path>
            </g>
            <g id="Chart" transform="translate(30.000000, 53.000000)">
                <path d="M34.1350812,33.4611 C32.3982695,35.2971 29.9378997,36.45 27.2014353,36.45 C21.9433979,36.45 17.680933,32.2191 17.680933,27 C17.680933,21.7809 21.9433979,17.55 27.2014353,17.55 L27.2014353,0 C12.243366,0 0,12.1527 0,27 C0,41.8473 12.243366,54 27.2014353,54 C35.0585699,54 42.1595046,50.7006 47,45.4518 L34.1350812,33.4611 Z" id="Value" fill="#F2F2F2"></path>
                <path d="M27,0 L27,17.55 C32.2191,17.55 36.45,21.7809 36.45,27 L54,27 C54,12.1527 41.8473,0 27,0 Z" id="Value" fill="#AFB9C5"></path>
                <path d="M36.5848431,27 C36.5848431,29.9811105 35.1809135,32.6309865 33,34.3419195 L43.7290763,48 C49.9744195,43.1102843 54,35.5306239 54,27 L36.5848431,27 Z" id="Value" fill="#C5CFD6"></path>
            </g>
        </g>
        <g id="Humaaan" transform="translate(360.500000, 244.000000) scale(-1, 1) translate(-360.500000, -244.000000) translate(266.000000, 95.000000)">
            <g id="Head/Front/Chongo" transform="translate(102.659184, 41.639603) rotate(7.000000) translate(-102.659184, -41.639603) translate(56.243778, 6.032313)">
                <g id="Head" stroke-width="1" transform="translate(36.926471, 21.163462)" fill="#997659">
                    <path d="M5.64993729,23.5461442 C2.49894033,19.8536316 0.366279675,15.3284065 0.722648523,10.2577618 C1.7494464,-4.35217751 22.1206864,-1.13817701 26.0833143,6.23566574 C30.0459423,13.6095085 29.575079,32.3138722 24.4537355,33.6317835 C22.4113508,34.1573648 18.060464,32.8699012 13.6322764,30.2052474 L16.4117647,49.8365385 L0,49.8365385 L5.64993729,23.5461442 Z"></path>
                </g>
                <path d="M56.5272429,19.3679646 C54.2846836,18.6852723 51.0292754,18.4537495 49.6598219,18.6103727 C50.4388295,16.7470185 50.7479511,14.6710176 50.4959424,12.6496643 C50.2510007,10.6855451 49.3719017,9.01315455 48.5588672,7.26069132 C48.1840997,6.45292046 47.7593912,5.64955222 47.126176,5.03169941 C46.4811299,4.4022347 45.664588,3.98673736 44.8083655,3.78850935 C43.9321456,3.58560356 43.015931,3.60249862 42.1383501,3.78663824 C41.7501289,3.86808672 41.4017977,4.04529221 41.0210624,4.14380085 C40.631166,4.24473094 40.4420286,4.00110091 40.1590291,3.75626015 C39.4770246,3.16630896 38.4772084,2.87507559 37.6143899,2.77084354 C36.6463496,2.65395396 35.6418743,2.79973574 34.7186449,3.11743987 C33.8200196,3.42672398 32.95673,3.92895296 32.3070248,4.66061351 C32.0177435,4.98629739 31.7551602,5.35699806 31.584502,5.7662767 C31.5145112,5.93423669 31.5029421,6.03373592 31.3350584,6.09526255 C31.1797908,6.15222145 30.9981917,6.15387244 30.8379509,6.2080797 C29.2885211,6.73199159 27.9637739,7.92719308 27.2424551,9.46178161 C26.8216203,10.3570546 26.6222748,11.9333138 26.676875,13.7000414 C26.7314751,15.4667691 28.3293802,20.0766656 29.8238958,21.7581365 C31.1579089,23.25899 33.1187506,24.2494146 35.0111196,24.6829627 C33.7550543,26.1162909 32.9189339,27.9073871 32.3006382,29.7289715 C31.6290511,31.7076744 31.213399,33.7636433 31.0599113,35.8584654 C30.9141189,37.8487802 30.9006129,39.9535631 31.367986,41.9013927 C31.805206,43.722922 32.7402139,45.2172266 34.3011082,46.1652209 C35.0160927,46.5994844 35.7853633,46.9257186 36.5590836,47.2238861 C37.3216011,47.517706 38.0864221,47.8033811 38.8851652,47.9682592 C40.3968513,48.2801849 42.1386642,48.2266381 43.3031184,47.025383 C43.7228014,46.5923302 44.1843638,46.0481662 44.4905539,45.5191363 C44.6006441,45.328888 44.6670228,45.204459 44.5332708,45.0185033 C44.3730301,44.7957857 44.1138495,44.6251291 43.9080127,44.4508954 C42.734188,43.457499 42.0075819,42.1313196 41.8244123,40.5552914 C41.6385728,38.9562044 42.0688304,36.8922007 43.6261126,36.1943303 C45.5484253,35.3328475 47.6654245,36.3216761 49.3739956,37.2434198 C50.1001305,34.6848367 51.5910863,32.3811103 53.9286324,31.2074817 C56.5147322,29.9090937 59.4822478,29.7571483 62.1398565,28.6431201 C62.8323833,28.3528223 63.5377356,28.0232861 64.0476162,27.431794 C64.2606772,27.1845869 64.5106443,26.863911 64.5957117,26.5369613 C64.7074771,26.1074857 64.4300266,25.7474063 64.2157093,25.412587 C63.0793142,23.6372852 58.7698023,20.0506569 56.5272429,19.3679646 Z" id="hair" fill="#191847"></path>
            </g>
            <g id="Bottom/Skinny-Jeans-1" transform="translate(6.135546, 114.158538)">
                <path d="M125.675439,12.7849617 C112.577366,23.4588183 117.414397,116.86478 116.539441,118.04216 C116.150572,118.56544 95.4118999,123.044142 54.3234252,131.478267 L56.0856041,138.705565 C104.137565,136.251681 129.566414,133.241365 132.372151,129.674616 C136.389163,124.568052 141.387226,96.0349158 147.36634,44.0752071 L125.675439,12.7849617 Z" id="Leg" fill="#B28B67" transform="translate(100.844882, 75.745263) rotate(-55.000000) translate(-100.844882, -75.745263) "></path>
                <path d="M61.2301053,123.862396 L64.3356232,135.502081 C100.145869,139.556694 123.764896,134.436339 132.087577,126.526846 C137.636031,121.253851 142.646739,92.7982232 147.1197,41.1599623 L123.91517,8.0204585 C92.7388976,31.5354451 111.186225,108.333426 110.387774,110.092481 C109.589322,111.851536 90.6985978,113.26976 61.2301053,123.862396 Z" id="Pant" fill="#CE1D5A" transform="translate(104.174903, 72.472369) rotate(-55.000000) translate(-104.174903, -72.472369) "></path>
                <g id="Accessories/Shoe/Flat-Sneaker" transform="translate(136.371473, 147.533141) rotate(20.000000) translate(-136.371473, -147.533141) translate(115.552798, 133.838030)" fill="#E4E4E4">
                    <path d="M1.60145456,17.7994784 C0.99283458,19.4911078 0.68852459,20.7817243 0.68852459,21.6713278 C0.68852459,22.888546 0.895367157,24.6647701 1.30905229,27 C2.74940343,27 15.6940816,27 40.1430869,27 C41.1522458,23.7292924 40.5697008,21.9635426 38.3954518,21.7027506 C36.2212028,21.4419587 34.4150173,21.2064844 32.9768951,20.9963278 L15.209468,13.2311075 C14.7034043,13.0099333 14.1138616,13.2408819 13.8926874,13.7469456 C13.8908218,13.7512142 13.8889861,13.7554958 13.8871803,13.7597901 L12.8500811,16.2261192 C10.8372953,17.1467902 9.20169777,17.6071257 7.94328865,17.6071257 C7.02785355,17.6071257 5.80012907,17.2826022 4.26011522,16.6335552 L4.26011998,16.6335439 C3.24225007,16.2045572 2.06934105,16.6819414 1.64035436,17.6998113 C1.62650131,17.7326808 1.61353008,17.7659151 1.60145456,17.7994784 Z" id="shoe"></path>
                </g>
                <polygon id="Leg" fill="#997659" points="72.6295266 19.2927169 37.3087935 104.357787 2.5940103 176.273133 10.7843512 176.273133 100.392552 19.2927169"></polygon>
                <g id="Accessories/Shoe/Flat-Sneaker" transform="translate(0.276100, 155.559079)" fill="#E4E4E4">
                    <path d="M1.60145456,17.7994784 C0.99283458,19.4911078 0.68852459,20.7817243 0.68852459,21.6713278 C0.68852459,22.888546 0.895367157,24.6647701 1.30905229,27 C2.74940343,27 15.6940816,27 40.1430869,27 C41.1522458,23.7292924 40.5697008,21.9635426 38.3954518,21.7027506 C36.2212028,21.4419587 34.4150173,21.2064844 32.9768951,20.9963278 L15.209468,13.2311075 C14.7034043,13.0099333 14.1138616,13.2408819 13.8926874,13.7469456 C13.8908218,13.7512142 13.8889861,13.7554958 13.8871803,13.7597901 L12.8500811,16.2261192 C10.8372953,17.1467902 9.20169777,17.6071257 7.94328865,17.6071257 C7.02785355,17.6071257 5.80012907,17.2826022 4.26011522,16.6335552 L4.26011998,16.6335439 C3.24225007,16.2045572 2.06934105,16.6819414 1.64035436,17.6998113 C1.62650131,17.7326808 1.61353008,17.7659151 1.60145456,17.7994784 Z" id="shoe"></path>
                </g>
                <path d="M5.72891923,161.333546 L23.9279474,164.757324 C37.999385,144.003742 96.8889256,58.9070869 103.345604,19.2927169 L62.8304652,19.2927169 C41.2683299,47.9298953 19.1419053,140.23666 5.72891923,161.333546 Z" id="Pant" fill="#CE1D5A"></path>
            </g>
            <g id="Body/Long-Sleeve-1" transform="translate(93.696267, 118.926202) rotate(7.000000) translate(-93.696267, -118.926202) translate(6.628852, 61.659298)">
                <path d="M134.383798,53.1487343 L159.11677,42.2522778 C163.449411,37.9210947 167.633192,34.6291953 171.668115,32.3765795 C172.874634,31.9912396 174.935915,31.8748238 172.736689,35.0972628 C170.537464,38.3197019 168.368673,41.8084467 169.247426,42.9378019 C170.126179,44.0671572 172.671734,42.8206565 173.677405,44.6572096 C174.347852,45.8815784 170.056963,47.3461791 160.804738,49.0510118 L142.281202,63.298318 L134.383798,53.1487343 Z M34.3915547,56.1499581 L48.3787808,58.9340678 C34.3122386,85.2322528 26.7686048,99.1703062 25.7478792,100.748228 C23.4512466,104.298552 25.5940513,110.805258 26.3855944,114.231734 C21.4198969,115.391327 23.3782154,107.893517 17.0942212,109.458992 C11.3584826,110.887884 6.49526794,114.554932 1.14692666,109.609333 C0.489379527,109.001301 0.00802393581,107.100764 2.2499352,106.125988 C7.83535373,103.697465 16.0873392,99.1501047 17.4253993,97.384636 C19.2500834,94.977104 24.9054685,81.2322114 34.3915547,56.1499581 Z" id="Skin" fill="#B28B67"></path>
                <path d="M83.3720497,6.75375153 L89.1634224,5.22758495 C103.06075,16.5700694 110.90661,46.0547725 119.788279,49.2713783 C128.185537,52.3125489 139.307304,47.6856963 152.476021,41.5999727 L157.456592,50.568906 C146.275418,65.0580942 120.947213,78.6887018 109.713111,73.1551362 C91.7521171,64.3081151 84.5836805,27.7236901 83.3720497,6.75375153 Z" id="Coat-Back" fill="#BEAD48" transform="translate(120.414321, 39.821394) rotate(5.000000) translate(-120.414321, -39.821394) "></path>
                <path d="M60.6652118,78.0621368 C84.3314416,78.0621368 101.739824,78.0621368 112.89036,78.0621368 C115.276782,78.0621368 114.827107,74.6052421 114.482135,72.8608741 C110.500742,52.7287591 94.9588961,31.0273133 94.9588961,2.3697544 L79.894705,0 C67.4346837,20.1033331 63.1257923,44.8546065 60.6652118,78.0621368 Z" id="Shirt" fill="#DDE3E9"></path>
                <path d="M55.4562808,57.6791321 C44.8098331,76.9445001 35.8609177,90.8146428 28.6095346,99.28956 L17.6627032,97.1386194 C24.7141541,53.2675973 45.1342145,20.8880575 78.9228847,9.04277021e-13 L79.0948583,8.9831528e-13 L84.8874996,9.09494702e-13 C98.4111229,46.2463022 102.139346,77.0603036 96.0721702,92.4420041 L49.0613603,92.4420041 C49.8051181,81.1869853 52.1898924,69.284392 55.4562808,57.6791321 Z" id="Coat-Front" fill="#BEAD48"></path>
            </g>
        </g>
    </g>
</svg>