<?xml version="1.0" encoding="UTF-8"?>
<svg width="24px" height="28px" viewBox="0 0 24 28" version="1.1" xmlns="http://www.w3.org/2000/svg" xmlns:xlink="http://www.w3.org/1999/xlink">
    <!-- Generator: Sketch 52.4 (67378) - http://www.bohemiancoding.com/sketch -->
    <title>Dashboard OFF</title>
    <desc>Created with Sketch.</desc>
    <g id="Dashboard-OFF" stroke="none" stroke-width="1" fill="none" fill-rule="evenodd">
        <g id="Group-20" transform="translate(0.000000, 7.000000)">
            <g id="umbrella-outline" fill="#8B999F" fill-rule="nonzero">
                <path d="M13,0 C5.82029825,-2.88657986e-15 5.77315973e-16,5.82029825 0,13 C0,13.7179702 0.582029825,14.3 1.3,14.3 L11.7,14.3 L14.3,14.3 L24.7,14.3 C25.4179702,14.3 26,13.7179702 26,13 C26,6.97778466 21.905084,1.91198819 16.3477717,0.435130169 C15.2796409,0.15127398 14.1574864,-4.65364312e-17 13,0 Z M2.678,11.7 C3.32004239,6.48727969 7.74788886,2.57134417 13,2.57134417 C18.2521111,2.57134417 22.6799576,6.48727969 23.322,11.7 L2.678,11.7 Z" id="Shape"></path>
            </g>
            <polyline id="Path-2" stroke="#8B999F" stroke-width="2" stroke-linecap="round" transform="translate(12.616344, 9.887217) scale(-1, -1) rotate(90.000000) translate(-12.616344, -9.887217) " points="15.4033296 11.7101722 11.2682834 9.03006458 9.82935763 8.06426258"></polyline>
        </g>
    </g>
</svg>