<?xml version="1.0" encoding="UTF-8"?>
<svg width="124px" height="135px" viewBox="0 0 124 135" version="1.1" xmlns="http://www.w3.org/2000/svg" xmlns:xlink="http://www.w3.org/1999/xlink">
    <!-- Generator: Sketch 52.4 (67378) - http://www.bohemiancoding.com/sketch -->
    <title>Group 14</title>
    <desc>Created with Sketch.</desc>
    <g id="Symbols" stroke="none" stroke-width="1" fill="none" fill-rule="evenodd">
        <g id="Journey-before-card" transform="translate(-96.000000, -23.000000)">
            <g id="Group-22">
                <g id="Group-20">
                    <g id="Group-14" transform="translate(90.000000, 20.000000)">
                        <g id="journey-illustration">
                            <path d="M62.1211237,111.849204 C81.8313699,110.442267 116.853771,97.8424279 123.291414,76.9067379 C129.729058,55.9710478 91.0078005,3 59.6117999,3 C43.8424389,3 46.823313,18.4064854 39.688642,30.8756455 C32.553971,43.3448055 29.6042698,49.2276183 17.9032364,61.1511385 C6.20220292,73.0746587 1.45186582,82.1998793 11.3972055,93.4378527 C22.6837324,106.191333 44.1812071,113.129772 62.1211237,111.849204 Z" id="Oval" fill-opacity="0.565783514" fill="#C5E691"></path>
                            <g id="Group-6">
                                <g id="Group-2" transform="translate(89.748504, 41.205644) rotate(7.000000) translate(-89.748504, -41.205644) translate(36.748504, 6.205644)">
                                    <path d="M7.3706268,42.6397362 C4.45397786,44.0130329 1.84102956,45.9868913 -0.911396818,47.5054951 C-1.71414257,47.9482839 -3.70104017,48.5073122 -3.59509403,49.8680339 C-3.51196706,50.932165 -2.9757166,51.1203053 -2.18003393,51.1397784 C-0.0768672262,51.1904085 3.37860687,48.2802257 5.28781063,47.2601338 C7.8631168,45.8844328 10.445486,44.5270065 13.0417098,43.2004377 C16.9451431,41.2061252 15.4750683,39.7288319 12.4595108,40.2436483 C10.9826841,40.4957723 9.20146339,41.7776915 7.3706268,42.6397362 Z M51.6611474,24.0758454 C52.6409859,23.5356902 53.6204487,22.9945805 54.5978828,22.4479686 C55.204188,22.1087893 57.3892802,21.3886709 57.575679,20.4989628 C57.7149687,19.8343117 57.3271473,19.0421495 56.7137121,19.2825078 C54.707629,20.0698438 52.7144052,20.9324672 50.7322579,21.851868 C50.4013107,23.8583398 50.7109405,24.5996656 51.6611474,24.0758454 Z" id="Shape" fill="#89C5CC" transform="translate(27.243597, 35.217072) rotate(-67.000000) translate(-27.243597, -35.217072) "></path>
                                    <path d="M66.9520171,39.4302794 C62.8472762,41.5952524 62.7406645,41.3202815 58.6826193,43.6031999 C56.2026704,44.998513 53.7297557,46.411557 51.2721224,47.8612069 C50.5553532,48.2838903 48.7812582,48.8175354 48.8758572,50.116472 C48.950081,51.1322851 49.4288975,51.3118826 50.1393602,51.3304716 C52.0172714,51.3788028 55.1026539,48.60076 56.8073762,47.6269865 C59.1068594,46.3137507 63.7436285,44.2233402 66.061789,42.9570056 C71.2540608,40.1209082 67.8294072,38.9675155 66.9520171,39.4302794 Z M105.312303,22.2576212 C106.607945,21.57733 103.826909,22.9845964 105.118697,22.2985318 C105.919987,21.8728546 108.851311,20.8190938 109.029604,19.9370532 C109.162853,19.278123 108.562879,18.5853058 107.743258,18.9176636 C105.063012,20.0058038 106.482987,19.0753913 103.846977,20.2858369 C103.567401,22.2600781 104.055843,22.9173395 105.312303,22.2576212 Z" id="Shape" fill="#89C5CC" transform="translate(78.650422, 35.070317) rotate(-67.000000) translate(-78.650422, -35.070317) "></path>
                                    <path d="M20.8167964,18.6765041 C20.8898393,16.1356305 20.9471718,13.5945183 21.002464,11.0531674 C21.0147058,10.4872825 21.0273557,9.9216362 21.0381693,9.35575125 C21.0740787,7.4332699 20.8792297,7.27598682 22.5324874,7.10533826 C29.9079793,6.3435058 37.3126476,6.09099366 44.6971169,5.40171667 C53.6028363,4.57043144 62.5550746,3.99643174 71.4860937,3.73914621 C75.4548914,3.62458494 79.4404196,3.38734764 83.4098295,3.53174258 C84.2894042,3.56372426 86.0157047,3.29593729 86.3619442,4.09595684 C86.5114984,4.44155001 86.1976998,5.63083922 86.1579138,6.02965565 C86.0334553,7.27550948 85.9173621,8.52565936 85.8457475,9.7777186 C85.4234047,17.1621473 86.5548298,39.6586798 87.7767674,46.9311726 C84.9103454,45.0397182 25.4504019,46.346788 21.0653823,49.4864829 C20.8013158,32.3648781 20.7184538,22.0948851 20.8167964,18.6765041 Z M28.4962359,4.68600056 C26.7434809,4.79194357 24.9966109,4.94805782 23.249944,5.14197553 C22.0859052,5.271254 19.2393271,4.72847111 18.476492,5.87260891 C17.9675295,6.63591194 18.4048558,6.75048907 18.476492,7.47575529 C18.5667984,8.38980541 18.5132234,9.4728043 18.4898858,10.4402926 C18.4338756,12.7715055 18.3750242,15.102485 18.3289578,17.4339312 C18.1552449,26.2454024 18.0466744,35.0552401 18.35676,43.8643778 C18.4243376,45.7855866 19.0329415,48.4455961 18.6999242,50.3124332 C18.4590396,51.6640233 17.6531822,52.4865984 19.5114638,52.7362879 C21.3401167,52.9822437 23.5760615,52.3568532 25.406338,52.1566349 C27.2471671,51.9550165 29.0877933,51.7363632 30.9308547,51.5615806 C38.943971,50.8020113 47.0348117,50.9168217 55.0690333,50.664332 C63.175703,50.4097421 71.2852137,50.3934073 79.3945215,50.3882735 C82.7876053,50.3861733 86.6646905,50.6055267 89.9753824,49.5313952 C91.1402329,49.1533607 91.3285572,48.9671437 91.0414033,47.6377223 C90.9868136,47.385466 90.6351261,47.2923575 90.5318319,46.8363825 C90.3916034,46.2158925 90.4636455,45.4616903 90.43077,44.8157647 C90.3236199,42.7062387 90.2862798,40.5929791 90.1998292,38.482053 C90.055542,34.955131 89.5270976,31.5322851 89.1362436,28.040833 C88.6851177,24.0086982 88.7082523,19.9147244 88.6991202,15.8562205 C88.6938439,13.6050483 88.7441719,11.3613434 88.9012441,9.11647176 C89.0021031,7.67667363 89.6184186,5.52701069 89.3058978,4.18428809 C89.1502461,3.51572704 88.895359,2.9855453 88.2904079,2.69781903 C87.9072654,2.5153357 87.5850036,2.65814874 87.2061228,2.61194452 C86.7568233,2.55710618 86.4763662,2.48453289 85.937978,2.34428675 C83.6316146,1.74293184 81.1651349,1.79380315 78.8147344,1.79380315 C61.9840649,1.79380315 45.2794185,3.67067452 28.4962359,4.68600056 Z" id="Fill-67" fill="#69A1AC"></path>
                                    <path d="M19.9461196,19.7909196 C20.0191625,17.250046 20.076495,14.7089338 20.1317872,12.1675829 C20.144029,11.601698 20.1566789,11.0360517 20.1674925,10.4701667 C20.2034019,8.54768539 20.0085529,8.39040231 21.6618106,8.21975375 C29.0373025,7.45792129 36.4419708,7.20540916 43.8264401,6.51613217 C52.7321595,5.68484694 61.6843978,5.11084723 70.6154169,4.85356171 C74.5842146,4.73900044 78.5697428,4.50176313 82.5391527,4.64615807 C83.4187274,4.67813976 85.1450279,4.41035279 85.4912674,5.21037234 C85.6408216,5.55596551 85.3270229,6.74525471 85.287237,7.14407114 C85.1627785,8.38992498 85.0466853,9.64007486 84.9750706,10.8921341 C84.5527279,18.2765628 85.684153,40.7730953 86.9060905,48.0455881 C84.0396686,46.1541337 24.5797251,47.4612035 20.1947055,50.6008984 C19.930639,33.4792936 19.847777,23.2093006 19.9461196,19.7909196 Z" id="Path" fill="#FFFFFF"></path>
                                    <path d="M74.6170272,37.4061294 C65.2033013,40.0224486 59.831235,40.0224486 58.5008284,37.4061294 C56.5052184,33.4816505 66.7571998,28.6431083 62.3129113,24.6152888 C61.9013132,24.2422611 59.9480365,22.8946187 55.3061382,23.6451387 C47.8953348,24.843346 34.747609,30.0716908 33.8190113,26.0717957 C32.8904135,22.0719007 41.7271358,20.747024 40.843035,16.9387979 C39.4711152,11.0293119 31.2708778,17.1949725 30.6170272,16.9387979" id="Path" stroke="#69A1AC" stroke-width="0.75" stroke-linecap="round" stroke-dasharray="1,1"></path>
                                    <g id="Group-3" transform="translate(24.349493, 16.145435)" stroke="#69A1AC" stroke-linecap="round" stroke-width="0.5">
                                        <path d="M-0.120960948,0.0148521369 C0.745995993,0.682318642 1.41266266,1.24924009 1.87903905,1.71561648 C2.34541544,2.18199287 3.01208211,2.94840476 3.87903905,4.01485214" id="Line-2"></path>
                                        <path d="M0.900624256,2.72033493 L3.60062426,0.0953349303" id="Line-3"></path>
                                    </g>
                                    <g id="Group-4" transform="translate(77.145404, 35.858168)" stroke="#69A1AC" stroke-linecap="round" stroke-width="0.5">
                                        <g id="Group">
                                            <path d="M0.996585204,0.0358399363 L3.7465852,3.75012565" id="Line-4"></path>
                                            <path d="M-0.2410135,3.03710256 C0.833688423,2.79302298 1.66702176,2.55259024 2.2589865,2.31580435 C2.85095124,2.07901845 3.68428458,1.65278452 4.7589865,1.03710256" id="Line-5"></path>
                                        </g>
                                    </g>
                                    <path d="M28.5986286,40.1545038 L28.9136087,41.8141045 C29.0101046,42.3225324 28.7027538,42.8205888 28.2050389,42.962329 L28.1119164,42.9888487 L28.1119164,42.9888487 C27.593659,42.9888487 27.1735284,42.5687181 27.1735284,42.0504607 C27.1735284,41.9838987 27.1806104,41.9175256 27.1946549,41.8524621 L27.5639692,40.141552 C27.6254863,39.856564 27.9063841,39.675405 28.1913721,39.736922 C28.3986809,39.7816714 28.5590826,39.9461397 28.5986286,40.1545038 Z" id="Triangle" fill="#B4D0D6"></path>
                                    <path d="M49.0073946,9.43834729 L49.3223747,11.097948 C49.4188706,11.6063759 49.1115198,12.1044323 48.613805,12.2461726 L48.5206824,12.2726922 L48.5206824,12.2726922 C48.002425,12.2726922 47.5822944,11.8525616 47.5822944,11.3343042 C47.5822944,11.2677422 47.5893764,11.2013691 47.6034209,11.1363057 L47.9727352,9.42539548 C48.0342523,9.14040749 48.3151501,8.95924849 48.6001381,9.02076554 C48.807447,9.06551489 48.9678486,9.22998324 49.0073946,9.43834729 Z" id="Triangle" fill="#B4D0D6"></path>
                                    <path d="M63.9998648,16.6650919 L64.3148449,18.3246926 C64.4113408,18.8331205 64.1039901,19.3311769 63.6062752,19.4729171 L63.5131526,19.4994367 L63.5131526,19.4994367 C62.9948952,19.4994367 62.5747646,19.0793061 62.5747646,18.5610488 C62.5747646,18.4944868 62.5818467,18.4281137 62.5958912,18.3630502 L62.9652054,16.65214 C63.0267225,16.367152 63.3076203,16.185993 63.5926083,16.2475101 C63.7999172,16.2922594 63.9603188,16.4567278 63.9998648,16.6650919 Z" id="Triangle" fill="#B4D0D6"></path>
                                    <path d="M75.3010719,10.239929 L75.616052,11.8995297 C75.7125479,12.4079576 75.4051972,12.906014 74.9074823,13.0477542 L74.8143597,13.0742739 L74.8143597,13.0742739 C74.2961023,13.0742739 73.8759717,12.6541433 73.8759717,12.1358859 C73.8759717,12.0693239 73.8830538,12.0029508 73.8970983,11.9378873 L74.2664125,10.2269772 C74.3279296,9.94198917 74.6088274,9.76083017 74.8938154,9.82234721 C75.1011243,9.86709656 75.2615259,10.0315649 75.3010719,10.239929 Z" id="Triangle" fill="#B4D0D6"></path>
                                    <path d="M79.4798124,27.862021 L79.7947925,29.5216217 C79.8912884,30.0300496 79.5839376,30.5281061 79.0862228,30.6698463 L78.9931002,30.6963659 L78.9931002,30.6963659 C78.4748428,30.6963659 78.0547122,30.2762353 78.0547122,29.7579779 C78.0547122,29.6914159 78.0617942,29.6250428 78.0758387,29.5599794 L78.445153,27.8490692 C78.5066701,27.5640812 78.7875679,27.3829222 79.0725559,27.4444393 C79.2798648,27.4891886 79.4402664,27.653657 79.4798124,27.862021 Z" id="Triangle" fill="#B4D0D6" transform="translate(78.912711, 28.696366) scale(-1, 1) translate(-78.912711, -28.696366) "></path>
                                    <path d="M52.9072136,41.1998241 L53.2221937,42.8594249 C53.3186896,43.3678528 53.0113388,43.8659092 52.513624,44.0076494 L52.4205014,44.034169 L52.4205014,44.034169 C51.902244,44.034169 51.4821134,43.6140384 51.4821134,43.0957811 C51.4821134,43.0292191 51.4891954,42.962846 51.5032399,42.8977825 L51.8725542,41.1868723 C51.9340713,40.9018843 52.2149691,40.7207253 52.4999571,40.7822424 C52.7072659,40.8269917 52.8676676,40.9914601 52.9072136,41.1998241 Z" id="Triangle" fill="#B4D0D6" transform="translate(52.340112, 42.034169) scale(-1, 1) translate(-52.340112, -42.034169) "></path>
                                    <path d="M29.7482269,24.9007035 L30.063207,26.5603042 C30.1597029,27.0687321 29.8523521,27.5667885 29.3546372,27.7085287 L29.2615147,27.7350484 L29.2615147,27.7350484 C28.7432573,27.7350484 28.3231267,27.3149178 28.3231267,26.7966604 C28.3231267,26.7300984 28.3302087,26.6637253 28.3442532,26.5986618 L28.7135675,24.8877517 C28.7750846,24.6027637 29.0559824,24.4216047 29.3409704,24.4831217 C29.5482792,24.5278711 29.7086809,24.6923394 29.7482269,24.9007035 Z" id="Triangle" fill="#B4D0D6" transform="translate(29.181125, 25.735048) scale(-1, 1) translate(-29.181125, -25.735048) "></path>
                                    <path d="M45.7332432,32.0055787 L46.0482234,33.6651794 C46.1447193,34.1736073 45.8373685,34.6716637 45.3396536,34.8134039 L45.246531,34.8399236 L45.246531,34.8399236 C44.7282737,34.8399236 44.3081431,34.419793 44.3081431,33.9015356 C44.3081431,33.8349736 44.3152251,33.7686005 44.3292696,33.7035371 L44.6985839,31.9926269 C44.7601009,31.7076389 45.0409988,31.5264799 45.3259868,31.5879969 C45.5332956,31.6327463 45.6936972,31.7972146 45.7332432,32.0055787 Z" id="Triangle" fill="#B4D0D6" transform="translate(45.166142, 32.839924) scale(-1, 1) translate(-45.166142, -32.839924) "></path>
                                </g>
                                <g id="Group-5" transform="translate(0.000000, 10.000000)">
                                    <g id="A-Human/Standing">
                                        <g id="Head/Front/Short-1" transform="translate(21.000000, 0.000000)">
                                            <g id="Head" stroke-width="1" transform="translate(14.294118, 9.240385)" fill="#D4A181">
                                                <path d="M2.1870725,10.2807109 C0.96733174,8.66848704 0.141785681,6.69268452 0.279734912,4.47874106 C0.677205059,-1.90024652 8.56284635,-0.496950525 10.0967668,2.72261462 C11.6306873,5.94217977 11.4484177,14.1088738 9.46596213,14.6842999 C8.67536181,14.9137789 6.9911483,14.3516473 5.27701165,13.1882076 L6.35294118,21.7596154 L0,21.7596154 L2.1870725,10.2807109 Z"></path>
                                            </g>
                                            <path d="M21.589065,12.4299298 C20.7269523,12.9729699 20.1134142,13.9905265 19.3748632,15.3252584 C19.1949857,15.245645 18.999086,15.2019231 18.7941176,15.2019231 C17.9169595,15.2019231 17.2058824,16.0026446 17.2058824,16.9903846 C17.2058824,17.4918151 17.3891361,17.9450484 17.6843422,18.2697945 C17.3168455,18.8539076 16.904988,19.4640906 16.4330434,20.0937202 C14.671863,18.9038751 13.3619399,15.4360342 15.0435292,12.0882854 C16.4903547,5.38250213 24.6886818,9.54470882 26.2659718,8.41375099 C26.6107372,10.8471639 25.4987066,12.8092772 21.589065,12.4299298 Z" id="Hair" fill="#191847"></path>
                                        </g>
                                        <g id="Bottom/Standing/Sweatpants" transform="translate(0.000000, 56.000000)">
                                            <polygon id="Leg" fill="#BA8B72" points="33.7066667 9.9475983e-14 43.3527873 38.0265166 47.8898406 66.5774059 52.4436752 66.5774059 47.8979565 9.9475983e-14"></polygon>
                                            <path d="M29.3716015,0 C30.0446756,19.7545781 29.779225,30.5292617 29.628583,32.324051 C29.4779409,34.1188403 28.622735,46.1391357 22.7951043,67.1799163 L27.5314928,67.1799163 C35.2492312,46.9948825 37.9434198,34.9745871 38.8285859,32.324051 C39.7137521,29.673515 42.3280428,18.8988313 46.1447914,0 L29.3716015,0 Z" id="Leg" fill="#D4A181"></path>
                                            <path d="M33.4995915,1.13686838e-13 C36.0086979,13.0850285 40.3483766,33.9720578 46.5186277,62.6610879 L53.1791289,62.6610879 C53.6710829,33.2145423 51.5783337,13.8337892 47.9542147,1.13686838e-13 L33.4995915,1.13686838e-13 Z" id="Pant" fill="#AFB9C5"></path>
                                            <path d="M29.3379453,0 C29.9971333,19.7545781 28.2888057,39.2165791 22.9970337,62.9686567 L30.1034222,62.9686567 C37.8353492,43.0848782 43.3770704,23.718915 47.1644685,0 L29.3379453,0 Z" id="Pant" fill="#C5CFD6"></path>
                                            <g id="Accessories/Shoe/Flat-Sneaker" transform="translate(22.120000, 59.949791)" fill="#E4E4E4">
                                                <path d="M0.262295082,9.63170125 C0.262295082,9.63170125 0.262295082,9.63170125 0.262295082,9.63170125 C0.262295082,10.1726871 0.34109225,10.96212 0.498686587,12 C1.04739178,12 5.97869777,12 15.2926045,12 C15.677046,10.5463522 15.4551241,9.76157449 14.6268388,9.64566695 C13.7985535,9.5297594 13.1104828,9.42510417 12.5626267,9.33170125 L6.45052513,6.21520512 C5.95850828,5.96433092 5.3562761,6.15981566 5.10540189,6.65183251 C5.08637923,6.68913993 5.06971885,6.72760544 5.05551917,6.76700181 L4.89526901,7.21160851 C4.12849343,7.62079565 3.50540867,7.82538921 3.02601473,7.82538921 C2.90277385,7.82538921 2.76467565,7.8073766 2.6117201,7.77135138 L2.61172204,7.77134316 C1.58427464,7.52935114 0.555190658,8.16608853 0.313198635,9.19353593 C0.27937667,9.3371369 0.262295082,9.48417103 0.262295082,9.63170125 Z" id="shoe"></path>
                                            </g>
                                            <g id="Accessories/Shoe/Flat-Sneaker" transform="translate(46.873333, 59.949791)" fill="#E4E4E4">
                                                <path d="M0.262295082,9.63170125 C0.262295082,9.63170125 0.262295082,9.63170125 0.262295082,9.63170125 C0.262295082,10.1726871 0.34109225,10.96212 0.498686587,12 C1.04739178,12 5.97869777,12 15.2926045,12 C15.677046,10.5463522 15.4551241,9.76157449 14.6268388,9.64566695 C13.7985535,9.5297594 13.1104828,9.42510417 12.5626267,9.33170125 L6.45052513,6.21520512 C5.95850828,5.96433092 5.3562761,6.15981566 5.10540189,6.65183251 C5.08637923,6.68913993 5.06971885,6.72760544 5.05551917,6.76700181 L4.89526901,7.21160851 C4.12849343,7.62079565 3.50540867,7.82538921 3.02601473,7.82538921 C2.90277385,7.82538921 2.76467565,7.8073766 2.6117201,7.77135138 L2.61172204,7.77134316 C1.58427464,7.52935114 0.555190658,8.16608853 0.313198635,9.19353593 C0.27937667,9.3371369 0.262295082,9.48417103 0.262295082,9.63170125 Z" id="shoe"></path>
                                            </g>
                                        </g>
                                        <g id="Body/Long-Sleeve-1" transform="translate(26.000000, 18.000000)">
                                            <path d="M29.7236682,7.44717249 L39.8398488,4.06120969 C41.7270305,2.42320986 43.507076,1.22558128 45.179985,0.468323942 C45.6665256,0.366215686 46.4720161,0.425517692 45.4654549,1.69862539 C44.4588936,2.97173309 43.4514942,4.36132503 43.7388844,4.89514457 C44.0262745,5.42896412 45.0733856,5.02654975 45.3764395,5.87215219 C45.5784755,6.43588714 43.8436594,6.83964592 40.1719914,7.08342852 L32.3064609,12.2446411 L29.7236682,7.44717249 Z M29.0432013,27.1230236 L37.5565659,34.0933626 C39.8655657,34.7880512 41.7946604,35.652361 43.34385,36.6862921 C43.7097954,37.0580871 44.1520749,37.8110337 42.6344105,37.6809057 C41.1167461,37.5507777 39.515142,37.4900053 39.3057338,38.0671756 C39.0963256,38.6443459 40.0147339,39.3345783 39.5914287,40.1133322 C39.3092253,40.6325014 37.9759828,39.3307038 35.5917014,36.2079393 L27.1612371,32.3100879 L29.0432013,27.1230236 Z" id="Skin" fill="#D4A181"></path>
                                            <path d="M12.1521176,11.4539797 C19.0458209,19.6655445 27.3057348,25.1630397 38.4896985,30.1819202 L36.2208,35.6180368 C24.7977734,33.986352 18.6803388,32.7943294 13.6479317,24.6393169 C12.3848996,22.5925741 10.0180409,15.6232934 8.61813467,11.9978199 L12.1521176,11.4539797 Z" id="Coat-Back" fill="#A5963E" transform="translate(23.553917, 23.536008) rotate(15.000000) translate(-23.553917, -23.536008) "></path>
                                            <path d="M3,41 L23,41 C18.4696651,25.1349382 16.1553981,14.2461461 16.0571989,8.3336236 C16.0521926,8.03219749 15.567371,7.50104211 15.3528754,7.57060164 C13.7842918,8.07928294 12.1057836,7.8890824 10.3173507,7 C5.57597012,15.7560161 3.93631852,26.5364447 3,41 Z" id="Shirt" fill="#F2F2F2"></path>
                                            <path d="M11.2756133,7 C11.2635156,6.89365862 11.2508436,6.786652 11.2375795,6.67898134 C17.0283831,6.66666667 26.7101538,8.03363279 37.9219391,4 L39,10.0365868 C30.7086751,16.0123673 22.3125279,20.6352129 14.9655408,19.9285146 C18.1745047,35.3331801 18.0765191,48 11.093852,48 C7.78245046,48 4.20824557,48 0.371237335,48 C-1.33176139,35.0373344 3.14405252,17.0642726 7.29345746,7.99880524 C7.45191073,7.65262235 7.78927366,7 8.58390176,7 C9.20371228,7 10.1009495,7 11.2756133,7 Z" id="Coat-Front" fill="#BEAD48"></path>
                                        </g>
                                    </g>
                                    <path d="M23.8174897,71.7248413 C23.2099782,73.9198133 42.479634,78.7340473 45.2351966,79.5998803 C52.5190203,81.8886402 59.7818022,84.2429161 67.0141761,86.6776667 C74.1202561,89.0696978 81.1744475,91.5967814 88.2557723,94.0549247 C91.4205845,95.1537611 94.585616,96.2580666 97.7858975,97.2576756 C98.9188327,97.6117999 106.057391,100.275139 105.442534,98.2915698 C105.006619,96.8867095 98.3455849,95.2783642 96.7350592,94.6749713 C93.5194727,93.4698363 90.3130768,92.2453673 87.091035,91.0552945 C80.1103505,88.4765751 73.0975068,85.9760837 66.0423811,83.5913255 C58.8239124,81.1512438 51.5653935,78.8204211 44.2869781,76.5526066 C41.6553458,75.7326859 24.4999023,69.2645631 23.8174897,71.7248413" id="Fill-115" fill="#C97631" transform="translate(64.641721, 85.094417) rotate(74.000000) translate(-64.641721, -85.094417) "></path>
                                </g>
                            </g>
                        </g>
                    </g>
                </g>
            </g>
        </g>
    </g>
</svg>