<?xml version="1.0" encoding="UTF-8"?>
<svg width="26px" height="26px" viewBox="0 0 26 26" version="1.1" xmlns="http://www.w3.org/2000/svg" xmlns:xlink="http://www.w3.org/1999/xlink">
    <!-- Generator: Sketch 52.4 (67378) - http://www.bohemiancoding.com/sketch -->
    <title>leaderboard ON</title>
    <desc>Created with Sketch.</desc>
    <g id="leaderboard-ON" stroke="none" stroke-width="1" fill="none" fill-rule="evenodd">
        <g id="award-outline" transform="translate(-1.000000, -1.000000)" fill="#00A85D">
            <rect id="Rectangle" opacity="0" x="0" y="0" width="27" height="27"></rect>
            <path d="M21.148684,23.041341 L18.5871908,13.0614973 C19.5342398,11.8831764 20.0471416,10.4149461 20.0398125,8.90322911 C20.0398125,5.22875214 17.0610604,2.25 13.3865834,2.25 C9.71210643,2.25 6.7333543,5.22875214 6.7333543,8.90322911 C6.73031581,10.4266123 7.25541764,11.9039511 8.21924213,13.0836747 L5.62448278,23.041341 C5.51160052,23.4766252 5.67277925,23.9369844 6.03252561,24.2067941 C6.39227197,24.4766039 6.8793468,24.5024349 7.26561263,24.2721884 L13.1758978,20.8014205 L19.474288,24.2832771 C19.6444825,24.3859821 19.8412206,24.436131 20.0398125,24.4274304 C20.3889144,24.4385674 20.7228595,24.2845707 20.9410527,24.0118292 C21.1592459,23.7390878 21.2361815,23.3794835 21.148684,23.041341 Z M13.3865834,4.46774304 C15.8362347,4.46774304 17.8220695,6.4535778 17.8220695,8.90322911 C17.8220695,11.3528804 15.8362347,13.3387152 13.3865834,13.3387152 C10.9369321,13.3387152 8.95109733,11.3528804 8.95109733,8.90322911 C8.95109733,6.4535778 10.9369321,4.46774304 13.3865834,4.46774304 Z M13.7303336,18.5615 C13.3872475,18.3634192 12.9645481,18.3634192 12.6214621,18.5615 L8.46319387,21.0010174 L10.0599689,14.6804497 C12.0922565,15.8485328 14.5922006,15.8485328 16.6244882,14.6804497 L18.3210617,21.1008158 L13.7303336,18.5615 Z" id="Shape" fill-rule="nonzero"></path>
        </g>
    </g>
</svg>