<?xml version="1.0" encoding="UTF-8"?>
<svg width="663px" height="462px" viewBox="0 0 663 462" version="1.1" xmlns="http://www.w3.org/2000/svg" xmlns:xlink="http://www.w3.org/1999/xlink">
    <!-- Generator: Sketch 52.4 (67378) - http://www.bohemiancoding.com/sketch -->
    <title>splash illustration</title>
    <desc>Created with Sketch.</desc>
    <g id="splash-illustration" stroke="none" stroke-width="1" fill="none" fill-rule="evenodd">
        <g id="Group">
            <g id="Scene/Wireframe" transform="translate(1.000000, 115.000000)" fill="#DEF1C1" opacity="0.6">
                <g id="Background-Shape-2">
                    <path d="M661.71121,146.152379 C671.360993,211.476278 437.337348,254.084822 235.907772,224.349347 C34.4781963,194.613871 -57.9281424,78.4934855 38.190693,16.6199792 C134.309528,-45.253527 652.061428,80.8284801 661.71121,146.152379 Z" id="Background-Shape"></path>
                </g>
            </g>
            <g id="Plant-Right" opacity="0.7" transform="translate(558.409742, 367.892890) rotate(15.000000) translate(-558.409742, -367.892890) translate(501.909742, 286.392890)">
                <path d="M34.6910164,49.0391148 C28.7647142,49.3530192 21.8366691,53.5574065 21.8807757,60.0262837 C21.9129524,64.7264784 22.5419719,69.3504179 22.3232863,74.0699536 C22.1481926,77.8418617 21.3272501,81.5313595 20.0521463,85.0844567 C18.8260569,88.5011348 15.8646369,91.6111201 15.3838681,95.1740365 C15.0773961,97.4442649 15.7064596,100.526397 16.6775367,102.613473 C17.8584391,105.15101 17.3559939,104.993456 15.7864961,107.391759 C12.7110356,112.091703 9.99861479,116.864948 8.29397975,122.271367 C5.83850654,130.05855 4.63041219,138.986267 6.68899305,147.011468 C6.95071709,148.030576 7.52240245,151.726223 8.97601841,151.83596 C10.5995375,151.958822 9.63136356,149.912598 9.4741858,149.235259 C8.4719508,144.913348 7.58805186,141.136372 7.77442101,136.62037 C8.49374037,119.196134 19.6231438,106.596093 26.1129539,91.1898199 C26.4749292,90.3924585 27.2177664,88.506298 27.7409451,87.2584618 C28.5669212,85.2884053 29.2215895,81.6361183 30.4596053,80.1095852 C32.7911413,77.2337939 30.9460069,82.7164508 30.5433637,83.7684107 C30.0343412,85.0990451 29.4694079,86.5157631 28.9280792,87.6917438 C26.458151,93.1386778 23.6879729,99.0922636 21.1359925,104.707716 C34.8988574,106.355526 42.6677131,89.2118909 45.1588559,78.2159821 C47.211389,69.1565583 48.6176803,48.3320787 34.6910164,49.0391148" id="Leaf-Me-Alone!" fill="#69A1AC" transform="translate(26.046668, 100.431407) scale(-1, 1) rotate(6.000000) translate(-26.046668, -100.431407) "></path>
                <path d="M91.6073268,34.2244921 C81.6510999,35.0128704 75.2594209,41.5694949 72.2840727,50.7401195 C70.6804664,55.6822362 70.4966625,60.7592311 69.6055256,65.8380587 C68.2649679,73.4792074 65.3806045,79.2698111 59.7435853,84.7136897 C57.9976319,86.3996684 56.7110048,88.1307287 55.7963879,89.9827397 C53.9807284,91.8318185 52.4002352,93.9242647 51.2390789,96.4825541 C49.7558073,99.7496876 49.3361034,103.669588 51.0486713,106.926826 C51.5090982,107.802435 52.6577807,109.560251 53.8482869,110.358892 C49.3911345,119.832626 46.9404162,130.208359 47.2166723,140.570897 C47.3836,146.826244 47.6895729,153.084158 48.0465413,159.331808 C48.1426623,161.009357 48.6900383,163.779493 49.512203,160.966108 C50.2646616,158.392791 49.3210616,154.35304 49.2337456,151.664637 C48.8089055,138.568247 48.4457002,126.660473 53.8475531,114.424666 C54.4140066,113.142223 55.0145793,111.870042 55.6400995,110.608123 C55.6767869,110.586865 55.7109062,110.561209 55.7453924,110.536286 C55.7692392,110.554612 55.7908848,110.574404 55.8147316,110.592363 C55.8547208,110.521259 55.9093851,110.436593 55.9732211,110.342032 C56.1526225,110.157307 56.3092777,109.923836 56.4582286,109.663242 C56.937366,109.000579 57.4796058,108.222097 57.4825408,107.795838 C57.4825408,107.792539 57.4807064,107.787408 57.4807064,107.784109 C60.824763,102.336199 64.6549277,97.188466 68.5672721,92.1415255 C68.5379222,92.1781772 72.8109038,86.3718131 72.1501637,89.5828695 C71.831717,91.1303048 68.6887074,94.0771023 67.4193233,95.7161668 C64.6112697,99.3626455 61.3138061,103.98296 58.5736241,108.450804 C58.2049157,108.662284 57.6839546,109.700627 57.307175,110.473978 C57.0991575,110.865785 56.9050811,111.26089 56.7143066,111.60505 C66.4236273,114.806577 73.9764625,108.357708 79.1266398,100.856936 C79.1328767,100.848139 79.1383798,100.838976 79.1442498,100.83018 C80.7115356,98.7575258 82.3169762,96.6995322 84.3226764,95.0612007 C87.6689343,92.3273496 91.2525596,91.8450131 95.1979227,90.4995288 C105.957237,86.8306926 110.531789,72.9144045 111.98461,62.588518 C113.623803,50.9391383 105.605771,33.0758275 91.6073268,34.2244921" id="Leaf-Me-Alone!" fill="#89C5CC"></path>
                <path d="M81.2101301,3.59395886 C69.6686558,12.6520798 62.762279,26.4950304 56.9909141,39.6101574 C50.5449828,54.2584416 45.5265369,69.3473257 43.188687,85.1903891 C41.6529125,95.5993696 39.895829,106.04359 39.0417654,116.536045 C38.7382023,120.262402 38.5865411,124.016694 38.6588726,127.755363 C38.6649279,128.062596 38.8290948,136.41076 40.3513379,134.684771 C41.2170718,133.703241 40.1972109,126.027046 40.2145679,124.774839 C40.3137096,117.722114 41.0915417,110.712629 42.1151656,103.738729 C43.8004246,92.256431 45.0682103,80.7754537 47.8429365,69.4893581 C48.2569496,67.8042409 48.6468139,66.0280172 49.2881784,64.412731 C49.9694394,62.6953672 49.3109154,63.3942739 50.8151287,62.8879061 C52.2767574,62.3955025 53.9503609,62.730372 55.4877612,62.0710534 C61.58606,59.4553908 65.6901818,51.1119802 68.7342073,45.6869266 C72.2157759,39.4831603 74.7547233,32.7028116 76.9677426,25.9703358 C78.5930596,21.0237216 79.954144,16.0714489 81.0456224,10.983176 C81.3895588,9.37952051 81.6345701,7.68641934 82.1770195,6.13829648 C82.3231924,5.72067571 82.8606659,5.02110117 82.8985328,4.63839074 C82.9786228,3.82841454 82.5587676,3.28642446 82.6140521,2.60412895 C82.1392593,2.92398617 81.6708382,3.25415113 81.2101301,3.59395886" id="Leaf-Me-Alone!" fill="#89C5CC" transform="translate(60.774883, 68.761817) rotate(-8.000000) translate(-60.774883, -68.761817) "></path>
                <path d="M50.9007143,142.121804 L49.2035051,142.121804 C49.3212674,140.047723 49.4768109,137.977272 49.8327879,135.926282 C51.1943108,128.082206 55.4514773,116.56131 64.788428,115.288133 C65.1328829,115.240683 66.3999585,115.232715 67.93482,115.32037 C68.6622495,114.924472 69.4770891,114.685049 70.3356338,114.629993 C78.2851348,114.059146 87.1628123,120.305864 90.9973734,126.806493 C94.0885785,132.04771 93.5678219,138.930111 91.6585046,144.498405 C90.3799472,148.226297 87.5894919,153.541404 82.936017,153.593201 C77.1139881,153.658037 76.8332388,146.649223 76.7206428,142.551875 C76.5710086,137.104559 75.8643204,132.359212 71.4575197,128.646171 C70.4304515,127.781208 69.3078247,127.020199 68.2703857,126.167188 C66.6458919,124.832073 64.8506521,123.465082 64.6413865,121.25631 C64.3524888,118.209015 66.1184684,117.660626 68.8148468,118.226764 C69.2744904,118.323112 73.9046312,120.346794 73.2190548,118.747263 C73.0097892,118.258639 72.2453215,117.871433 71.2804773,117.581301 C68.7837347,117.316886 65.8062367,117.010092 64.9499144,117.193371 C55.7118556,119.16743 52.1150795,131.631527 51.1598653,139.550581 C51.0567754,140.405357 50.9734111,141.262922 50.9007142,142.121804 Z" id="Leaf-Me-Alone!" fill="#69A1AC"></path>
            </g>
            <g id="Plant-Right" opacity="0.7" transform="translate(159.230129, 407.016791) scale(-1, 1) rotate(15.000000) translate(-159.230129, -407.016791) translate(129.230129, 364.016791)">
                <path d="M18.4391692,25.8684047 C15.2925682,26.0361082 11.6127438,28.2569528 11.633898,31.6702026 C11.6493371,34.1502215 11.9816886,36.5897959 11.8639288,39.0801078 C11.7696453,41.0703943 11.3324858,43.0174235 10.6542431,44.8926406 C10.0020717,46.6958598 8.42865694,48.3378616 8.17215239,50.2179818 C8.00864079,51.4159618 8.34155513,53.0420107 8.85640527,54.1429043 C9.48250172,55.4814077 9.21579023,55.3984508 8.38164709,56.6644504 C6.74712771,59.1454245 5.30533374,61.6649488 4.39838865,64.5182104 C3.09196294,68.6279311 2.44741732,73.3390116 3.53758518,77.5727413 C3.67618746,78.110376 3.97842299,80.0601626 4.7501626,80.1175561 C5.61210544,80.1818153 5.09878241,79.1024761 5.01556799,78.7451372 C4.48495702,76.4650568 4.01698431,74.472467 4.11751479,72.0895594 C4.50552499,62.8955121 10.4189425,56.2432798 13.8700117,48.1119789 C14.0624767,47.6911291 14.4575362,46.6956477 14.7357476,46.0370511 C15.174978,44.9972733 15.5238434,43.0699364 16.1816856,42.264037 C17.4205898,40.7458267 16.4390218,43.6393641 16.2248756,44.1945655 C15.9541513,44.896845 15.6537118,45.6445657 15.365889,46.2652544 C14.0526075,49.1401616 12.5797351,52.2825056 11.2228301,55.2463592 C18.5294632,56.1110003 22.6602326,47.0625433 23.9867194,41.2597447 C25.0796546,36.4788747 25.8335932,25.4904679 18.4391692,25.8684047" id="Leaf-Me-Alone!" fill="#69A1AC" transform="translate(13.830905, 52.989602) scale(-1, 1) rotate(6.000000) translate(-13.830905, -52.989602) "></path>
                <path d="M48.340094,18.220329 C42.9790488,18.6329958 39.5373755,22.064979 37.9352649,26.8652278 C37.0717846,29.452117 36.9728133,32.1096065 36.4929703,34.7680553 C35.7711316,38.7677191 34.2180128,41.7987382 31.1826948,44.6482684 C30.2425661,45.5307729 29.5497668,46.4368748 29.0572808,47.4062868 C28.079618,48.374164 27.2285832,49.4694287 26.6033452,50.8085334 C25.8046605,52.5186736 25.5786661,54.5704965 26.500818,56.2754567 C26.7487402,56.7337835 27.3672616,57.6538903 28.0083033,58.0719289 C25.6082982,63.0308366 24.2886807,68.4618843 24.437434,73.8860253 C24.5273181,77.1603088 24.6920727,80.4359352 24.8842865,83.7061898 C24.936044,84.5842817 25.2307849,86.034275 25.6734889,84.5616436 C26.0786589,83.2146732 25.5705667,81.1001157 25.5235503,79.6929048 C25.2947903,72.8377635 25.0992182,66.6047879 28.0079082,60.2001076 C28.3129217,59.5288287 28.636307,58.8629215 28.9731255,58.2023861 C28.9928803,58.1912588 29.0112522,58.1778294 29.0298217,58.1647837 C29.0426623,58.1743761 29.0543176,58.184736 29.0671582,58.1941366 C29.0886909,58.1569179 29.1181254,58.1126008 29.1524987,58.0631038 C29.2490995,57.966412 29.3334523,57.8442044 29.4136566,57.7077999 C29.6716537,57.3609372 29.9636289,56.9534504 29.9652093,56.7303302 C29.9652093,56.7286036 29.9642216,56.7259177 29.9642216,56.7241911 C31.7648674,53.8725505 33.8272638,51.1780341 35.9339108,48.5362762 C35.918107,48.5554611 38.2189432,45.5161924 37.8631601,47.1969797 C37.6916888,48.0069654 35.999299,49.5494297 35.3157845,50.4073775 C33.8037556,52.3160812 32.0281983,54.7345272 30.5527157,57.073164 C30.3541804,57.1838608 30.0736629,57.7273684 29.8707816,58.1321694 C29.7587721,58.3372558 29.6542695,58.5440688 29.5515448,58.7242148 C34.7796405,60.400014 38.8465518,57.0244344 41.6197242,53.0982488 C41.6230825,53.0936444 41.6260457,53.0888482 41.6292065,53.0842438 C42.4731296,51.9993389 43.3375976,50.9221078 44.41759,50.0645437 C46.2194212,48.6335435 48.1490656,48.3810705 50.2734919,47.6767936 C56.0669687,45.7563871 58.530189,38.4720801 59.3124772,33.0671239 C60.1951197,26.9694017 55.8777181,17.6190749 48.340094,18.220329" id="Leaf-Me-Alone!" fill="#89C5CC"></path>
                <path d="M43.0889081,1.90166188 C36.9656463,6.67602954 33.3054157,13.9773708 30.2474347,20.895186 C26.8320321,28.6216933 24.1746976,36.5813553 22.9408636,44.9402206 C22.130337,50.4320415 21.2023321,55.9423551 20.7537702,61.4785392 C20.5943348,63.444695 20.5155582,65.4256612 20.555694,67.3984877 C20.5590513,67.560609 20.6500817,71.9657824 21.4574524,71.0557313 C21.9166223,70.5382066 21.3716087,66.4872161 21.3802428,65.8264688 C21.4296061,62.1049852 21.8393118,58.4066336 22.3795269,54.7271724 C23.2689181,48.6690608 23.9366699,42.6114522 25.4045592,36.6573765 C25.6235804,35.7683785 25.8297385,34.8312949 26.1694949,33.9792502 C26.5303853,33.0733604 26.1810937,33.4418489 26.9794581,33.1753503 C27.7552203,32.9162005 28.6439056,33.0936783 29.4598182,32.7464872 C32.696242,31.3691029 34.8712835,26.968418 36.484865,24.1071782 C38.3303806,20.8352361 39.6751832,17.25861 40.8469702,13.7070939 C41.7075696,11.0976553 42.4278831,8.48510831 43.0049975,5.80067269 C43.1868522,4.95462724 43.3161453,4.06133788 43.603418,3.24468757 C43.6808287,3.02438836 43.9658532,2.65549141 43.9857795,2.45356319 C44.0279242,2.02619813 43.8047682,1.74001006 43.8338026,1.38000709 C43.5818796,1.5485667 43.3333442,1.72256839 43.0889081,1.90166188" id="Leaf-Me-Alone!" fill="#89C5CC" transform="translate(32.268219, 36.279710) rotate(-8.000000) translate(-32.268219, -36.279710) "></path>
                <path d="M27.0198498,74.7656727 L26.1326723,74.7656727 C26.1942298,73.64886 26.2755367,72.5340013 26.4616155,71.4296223 C27.1733207,67.2058892 29.3986577,61.0023299 34.2793365,60.316773 C34.4593925,60.2912231 35.1217274,60.2869322 35.9240414,60.3341313 C36.3042887,60.1209553 36.7302275,59.9920355 37.1790122,59.9623897 C41.3344332,59.6550106 45.9750374,63.0186281 47.979467,66.518967 C49.5953243,69.3411603 49.3231106,73.0470687 48.3250583,76.0453809 C47.6567215,78.0527073 46.1980745,80.9146883 43.7655762,80.9425787 C40.7222429,80.9774904 40.5754876,77.2035138 40.5166306,74.9972491 C40.4384127,72.0640794 40.0690075,69.5088925 37.7654526,67.5095627 C37.228576,67.043813 36.6417484,66.6340391 36.0994508,66.1747257 C35.2502835,65.4558173 34.3118627,64.7197456 34.2024739,63.5304066 C34.0514592,61.8895557 34.9745849,61.5942689 36.3840554,61.8991126 C36.6243236,61.9509926 39.0446245,63.0406673 38.686255,62.1793815 C38.5768662,61.9162759 38.1772581,61.7077808 37.6729077,61.5515557 C36.3677923,61.4091783 34.8113729,61.2439815 34.3637498,61.3426705 C29.5347646,62.4056251 27.6546316,69.1170621 27.1553151,73.381168 C27.1014272,73.8414322 27.0578504,74.3031977 27.0198497,74.7656727 Z" id="Leaf-Me-Alone!" fill="#69A1AC"></path>
            </g>
            <g id="Plant-Left" opacity="0.5" transform="translate(118.356279, 279.787667) rotate(-10.000000) translate(-118.356279, -279.787667) translate(27.356279, 114.287667)">
                <path d="M116.366776,73.5117812 C119.054312,69.645472 124.041609,59.8263159 127.824266,58.4447676 C130.260647,57.5549227 129.550285,66.759686 129.580373,68.5148324 C129.697544,75.3052174 129.042325,82.0525461 128.233183,88.7859197 C126.775433,100.929531 122.008718,111.744341 115.470815,122.079804 C112.106548,127.398028 108.160531,132.780739 102.695112,136.099056 C100.179375,137.627209 97.1523105,137.883072 94.6678617,139.199699 C91.7743584,140.732426 93.3501546,139.493377 92.0461512,142.535471 C90.2352665,146.759011 89.6560423,152.207828 88.8181744,156.714496 C84.9710959,177.402549 75.6573907,286.764991 77.27203,307.808696 C77.4154359,309.673917 74.837637,310.119956 74.7089518,307.84291 C74.0249677,295.769378 79.9436378,212.160349 82.9297072,184.817793 C85.9157766,157.475237 88.9375425,133.319456 91.9674615,123.859787 C95.6432048,112.383199 102.281808,98.5817153 107.807981,87.8792999 C110.374847,82.9071994 113.172781,78.1063848 116.366776,73.5117812 Z" id="Leaf" fill="#69A1AC"></path>
                <path d="M136.371976,205.261886 C143.475076,200.072472 151.163648,209.866444 144.736074,215.056656 C141.182759,217.92549 137.467976,216.904968 135.376654,214.514216 C134.019052,216.161001 132.748383,217.882875 131.527435,219.33726 C127.807519,223.769046 124.291636,228.30661 120.931471,232.949976 C113.951247,242.596455 107.969321,252.787754 101.714791,262.792697 C95.5423887,272.667031 89.4193411,282.591941 83.8247584,292.716449 C79.0853527,301.294364 72.7683271,311.385591 71.1457022,320.789519 C73.6076544,300.845416 82.9496475,281.675603 94.0743318,264.093348 C105.108494,246.655532 117.771477,227.6115 134.856454,213.849956 C133.117622,211.305341 133.069351,207.673098 136.371976,205.261886 Z" id="Leaf" fill="#C1DEE2"></path>
                <path d="M1.72902069,158.978838 C5.68216064,159.747502 12.1415467,168.638764 15.4001129,172.026404 C19.2726997,176.052139 22.7860971,180.343 26.0978876,184.838754 C33.2274943,194.515679 39.6036744,204.804259 45.0255965,215.533446 C53.864749,233.024168 60.9460596,250.979 66.0852697,270.025417 C69.2311666,281.684417 71.2680045,293.768517 72.4751444,305.76823 C72.7031179,308.031304 75.0895008,325.479176 71.6508691,325.949445 C68.5581823,326.372892 69.5133978,312.700917 69.364198,310.841192 C67.6776568,289.860012 62.6252574,269.4455 55.5974162,249.669687 C54.0666516,245.361714 52.6445172,240.085216 50.1964635,236.208456 C48.4335218,233.416087 50.1838209,234.389876 47.0856828,233.333099 C44.4254375,232.425145 41.3944665,232.647009 38.6703151,231.535598 C32.7523654,229.122623 28.0137854,224.43832 23.8600956,219.726463 C15.7880205,210.569381 9.39131154,200.662851 6.05697743,188.929402 C4.20731938,182.423589 2.50757805,175.879932 1.56432598,169.172944 C1.32032309,167.439385 -0.817166911,158.483746 1.72902069,158.978838 Z" id="Leaf" fill="#69A1AC"></path>
                <path d="M18.3159639,9.59228988 C33.1027083,35.3135095 45.253849,63.567595 53.0999282,92.1847105 C57.8537157,109.523511 61.178182,127.315668 64.481304,144.979301 C69.5955926,172.329234 74.433123,199.677057 75.8091713,227.512807 C77.1935643,255.509872 79.9311078,287.801197 70.7910965,314.76681 C75.356578,287.389386 71.0099297,258.24825 70.2403147,230.700916 C69.8725342,217.550264 68.8067745,204.528183 67.4086972,191.454378 C66.0520023,178.772083 63.8355467,166.15018 61.771527,153.567568 C60.7661049,147.439609 59.710185,141.32087 58.635112,135.205478 C58.3141659,133.380944 58.1785914,127.966912 57.0246916,126.720492 C55.8633187,125.465865 49.9378406,124.954397 48.077515,124.033826 C44.3314581,122.179685 40.807786,119.546012 37.6892447,116.763199 C31.7109601,111.428616 26.5101535,104.458336 22.4052607,97.587225 C12.9076036,81.6885548 9.11044495,62.2863879 9.3023687,43.8737049 C9.33924438,40.2987939 15.0712317,1.80272166 12.7691734,1.2725989 C12.9077768,1.10978418 13.0388851,0.941673084 13.1625091,0.766810358 C14.9053645,3.6936922 16.6156106,6.64040914 18.3159639,9.59228988 Z" id="Leaf" fill="#89C5CC"></path>
                <path d="M178.934841,102.789466 C179.162121,102.458045 180.641359,100.153106 179.896461,100.300413 C181.413099,100.000491 177.810421,102.842515 181.589365,101.098662 C179.795096,102.811833 180.830626,105.037269 180.854575,107.343009 C180.893646,111.086507 180.274104,114.799308 179.576703,118.462485 C178.4747,124.252849 176.833013,129.882776 174.450134,135.268511 C169.256576,147.005252 160.437648,158.30401 149.967941,165.641735 C144.799337,169.264664 139.733874,170.498138 133.839078,172.165998 C130.115674,173.219694 129.820403,175.166895 127.844011,178.819698 C123.729313,186.427704 119.687893,194.008344 116.059094,201.873046 C111.726068,211.264327 107.519745,220.66596 103.551961,230.222563 C90.1852082,262.413471 79.3059115,295.763733 73.5924373,330.278017 C73.4525474,309.938855 78.1065982,288.991258 83.977233,269.604654 C88.2536374,255.480014 93.8207127,241.864288 99.7585423,228.3864 C101.197399,225.121223 103.377855,220.921098 103.98889,217.316202 C104.416737,214.790432 103.108682,212.361383 102.509782,209.70068 C100.174938,199.339412 100.34205,187.731451 102.39239,177.314782 C104.653048,165.828427 111.190765,160.49722 122.250157,158.870252 C126.294798,158.275124 131.435641,158.493242 135.144377,156.749754 C139.18499,154.851152 140.851804,148.610473 143.149444,144.604447 C149.320829,133.843416 156.653326,123.52293 165.073059,114.455868 C167.404403,111.945083 169.911546,109.628714 172.571345,107.481724 C174.248613,106.127093 177.791793,104.458189 178.934841,102.789466 Z" id="Leaf" fill="#89C5CC"></path>
            </g>
            <g id="A-Human/Standing" transform="translate(296.000000, 0.000000)">
                <g id="Head/Front/Short-1" transform="translate(73.000000, 0.000000)">
                    <g id="Head" stroke-width="1" transform="translate(50.426471, 32.192308)" fill="#D4A181">
                        <path d="M7.71550576,35.8166701 C3.41253141,30.1998903 0.500188374,23.3164493 0.986842606,15.603356 C2.38902896,-6.62021367 30.2078191,-1.73131151 35.6191497,9.48523803 C41.0304803,20.7017876 40.3874735,49.1534957 33.3938109,51.1582059 C30.6047478,51.9576816 24.6632143,49.9992864 18.6161194,45.9460101 L22.4117647,75.8076923 L0,75.8076923 L7.71550576,35.8166701 Z"></path>
                    </g>
                    <path d="M76.1614237,43.3042714 C73.1200816,45.1961531 70.9556557,48.741189 68.3502117,53.3912228 C67.715644,53.11386 67.0245532,52.9615385 66.3014706,52.9615385 C63.2070516,52.9615385 60.6985294,55.7511489 60.6985294,59.1923077 C60.6985294,60.9392267 61.3450078,62.5182332 62.3864295,63.6496068 C61.0899848,65.6845783 59.6370423,67.8103787 57.9721254,70.0039283 C51.7590724,65.8586617 47.1379545,53.7771513 53.070228,42.1140267 C58.1743067,18.7519429 87.0961829,33.252534 92.6605115,29.3124228 C93.8767674,37.7901195 89.9537705,44.6258691 76.1614237,43.3042714 Z" id="Hair" fill="#191847"></path>
                </g>
                <g id="Bottom/Standing/Sweatpants" transform="translate(0.000000, 196.000000)">
                    <polygon id="Leg" fill="#BA8B72" points="117.76 9.9475983e-14 151.460371 133.092808 167.311342 233.020921 183.220941 233.020921 167.339696 9.9475983e-14"></polygon>
                    <path d="M102.614709,0 C104.966209,69.1410232 104.038811,106.852416 103.512518,113.134179 C102.986224,119.415941 99.9984159,161.486975 79.6385924,235.129707 L96.185975,235.129707 C123.149213,164.482089 132.561821,122.411055 135.6543,113.134179 C138.746779,103.857302 147.880251,66.1459095 161.214714,0 L102.614709,0 Z" id="Leg" fill="#D4A181"></path>
                    <path d="M117.036548,1.13686838e-13 C125.80254,45.7975999 140.963949,118.902202 162.520775,219.313808 L185.790374,219.313808 C187.5091,116.250898 180.197723,48.4182622 167.536244,1.13686838e-13 L117.036548,1.13686838e-13 Z" id="Pant" fill="#AFB9C5"></path>
                    <path d="M102.497125,0 C104.800111,69.1410232 98.8317768,137.258027 80.3440672,220.390299 L105.17145,220.390299 C132.184258,150.797074 151.545208,83.0162024 164.77713,0 L102.497125,0 Z" id="Pant" fill="#C5CFD6"></path>
                    <g id="Accessories/Shoe/Flat-Sneaker" transform="translate(77.280000, 209.824268)" fill="#E4E4E4">
                        <path d="M2.41393924,26.8089165 C1.41666827,29.8762016 0.918032787,32.1768809 0.918032787,33.7109544 C0.918032787,35.6044049 1.19382288,38.3674201 1.74540306,42 C3.66587124,42 20.9254422,42 53.5241159,42 C54.8696611,36.9122326 54.0929344,34.1655107 51.1939357,33.7598343 C48.2949371,33.3541579 45.8866897,32.9878646 43.9691935,32.6609544 L20.0507751,20.4652051 C19.5587583,20.2143309 18.9565261,20.4098157 18.7056519,20.9018325 C18.6866292,20.9391399 18.6699688,20.9776054 18.6557691,21.0170018 L17.1334415,25.2406298 C14.449727,26.6727848 12.2689304,27.3888622 10.5910515,27.3888622 C9.28213288,27.3888622 7.49437617,26.8083326 5.22778139,25.6472732 L5.22779136,25.6472538 C4.24468707,25.1436603 3.03948038,25.5323806 2.53588687,26.5154848 C2.48751964,26.6099063 2.44674176,26.7080264 2.41393924,26.8089165 Z" id="shoe"></path>
                    </g>
                    <g id="Accessories/Shoe/Flat-Sneaker" transform="translate(163.760000, 209.824268)" fill="#E4E4E4">
                        <path d="M2.41393924,26.8089165 C1.41666827,29.8762016 0.918032787,32.1768809 0.918032787,33.7109544 C0.918032787,35.6044049 1.19382288,38.3674201 1.74540306,42 C3.66587124,42 20.9254422,42 53.5241159,42 C54.8696611,36.9122326 54.0929344,34.1655107 51.1939357,33.7598343 C48.2949371,33.3541579 45.8866897,32.9878646 43.9691935,32.6609544 L20.0507751,20.4652051 C19.5587583,20.2143309 18.9565261,20.4098157 18.7056519,20.9018325 C18.6866292,20.9391399 18.6699688,20.9776054 18.6557691,21.0170018 L17.1334415,25.2406298 C14.449727,26.6727848 12.2689304,27.3888622 10.5910515,27.3888622 C9.28213288,27.3888622 7.49437617,26.8083326 5.22778139,25.6472732 L5.22779136,25.6472538 C4.24468707,25.1436603 3.03948038,25.5323806 2.53588687,26.5154848 C2.48751964,26.6099063 2.44674176,26.7080264 2.41393924,26.8089165 Z" id="shoe"></path>
                    </g>
                </g>
                <g id="Body/Long-Sleeve-1" transform="translate(91.000000, 86.000000)">
                    <path d="M104.032839,30.8392916 L139.439471,18.9750865 C146.044607,13.235636 152.274766,9.03921919 158.129948,6.38583613 C159.83284,6.02805509 162.652057,6.23584567 159.129092,10.6967366 C155.606128,15.1576276 152.08023,20.0266722 153.086095,21.897143 C154.091961,23.7676138 157.75685,22.3575787 158.817538,25.3205175 C159.524664,27.2958101 153.452808,28.710556 140.60197,29.5647552 L113.072613,47.649326 L104.032839,30.8392916 Z M101.651205,75.7822623 L131.447981,100.205901 C139.52948,102.640047 146.281311,105.668535 151.703475,109.291366 C152.984284,110.594113 154.532262,113.232391 149.220437,112.776431 C143.908611,112.32047 138.302997,112.107528 137.570068,114.129897 C136.83714,116.152266 140.051569,118.570798 138.570001,121.299503 C137.582288,123.11864 132.91594,118.557222 124.570955,107.615247 L95.06433,93.9574162 L101.651205,75.7822623 Z" id="Skin" fill="#D4A181"></path>
                    <path d="M42.5174286,15.8496455 C66.6552937,44.6270841 95.5725844,63.8966512 134.72435,81.4921871 L126.787959,100.536337 C86.8027453,94.8081969 65.3889366,90.6257144 47.7661547,62.0482493 C43.3431938,54.8758849 35.0517021,30.4554627 30.1480912,17.751605 L42.5174286,15.8496455 Z" id="Coat-Back" fill="#A5963E" transform="translate(82.436220, 58.192991) rotate(15.000000) translate(-82.436220, -58.192991) "></path>
                    <path d="M10.5,119.385764 L80.5,119.385764 C64.643828,63.795565 56.5438933,25.6419079 56.200196,4.92479327 C56.182674,3.86861475 54.4857987,2.00747901 53.7350639,2.2512113 C48.2450213,4.03359928 42.3702425,3.36714829 36.1107274,0.251858312 C19.5158954,30.9323994 13.7771148,68.7063574 10.5,119.385764 Z" id="Shirt" fill="#F2F2F2"></path>
                    <path d="M47.2355785,23.2803385 C67.842165,23.9633308 98.2132529,26.1708533 132.726787,13.7400431 L136.5,34.8918713 C109.099026,54.6627112 81.3709609,70.2070458 56.7158849,69.7950541 C62.9274776,112.204354 59.4855408,143.913333 38.828482,143.913333 C27.2385766,143.913333 14.7288595,143.913333 1.29933067,143.913333 C-4.66116488,98.4929515 11.0041838,35.5164496 25.5271011,3.75161037 C26.0816876,2.53860684 27.2624578,0.251858312 30.0436561,0.251858312 C32.4669593,0.251858312 36.101914,0.251858312 40.9485203,0.251858312 C43.2063702,7.96035274 45.3125885,15.6657749 47.2355785,23.2803385 Z" id="Coat-Front" fill="#BEAD48"></path>
                </g>
            </g>
            <path d="M237.28478,261.298287 C252.848252,266.031965 268.31512,270.080688 272.499544,271.407406 C297.084065,279.202506 321.597566,287.220741 346.008433,295.513059 C369.99303,303.659882 393.802492,312.26667 417.703534,320.638659 C428.385478,324.381095 439.068162,328.142159 449.869822,331.546646 C453.693729,332.752729 477.787949,341.823579 475.712669,335.067901 C474.241359,330.283203 451.758891,324.805471 446.323009,322.750425 C435.469691,318.645954 424.647394,314.475635 413.772287,310.422463 C390.210928,301.639814 366.541024,293.123595 342.728409,285.001542 C318.364475,276.691068 293.865363,268.75271 269.299096,261.028946 C265.630617,259.875621 253.600334,255.440974 240.57872,251.222472" id="Path" fill="#C97631" transform="translate(356.561969, 294.383923) rotate(75.000000) translate(-356.561969, -294.383923) "></path>
            <g id="ðŸ˜Human/Standing" transform="translate(117.000000, 26.000000)">
                <g id="Head/Front/Long" transform="translate(58.000000, 0.000000)">
                    <path d="M95.7620125,45.2901669 C99.2090333,57.9923169 103.701116,86.5437798 99.1172687,91.0224659 L70.1172687,91.0224659 C70.1143073,90.9710129 70.1114038,90.9196907 70.108558,90.8684989 C59.3599056,89.678999 51,80.5657798 51,69.5 L51,48.5 C51,36.6258779 60.6258779,27 72.5,27 L74.5,27 C85.2832975,27 94.2124503,34.9385375 95.7620125,45.2901669 Z" id="Hair-Back" fill="#191847"></path>
                    <g id="Head" stroke-width="1" transform="translate(54.000000, 31.000000)" fill="#B28B67">
                        <path d="M8.26227388,34.4901268 C3.65436435,29.0813759 0.535634794,22.4528771 1.05677633,15.0254539 C2.55833022,-6.37502057 32.3485306,-1.66718886 38.1433414,9.13393292 C43.9381521,19.9350547 43.249578,47.3329958 35.7603014,49.2634576 C32.7735882,50.033323 26.4110012,48.1474609 19.935372,44.244306 L24,73 L0,73 L8.26227388,34.4901268 Z"></path>
                    </g>
                    <path d="M68.7499646,61.874834 C69.855742,73.75284 69.4127345,87.3172649 66.1172687,90.5371269 L37.1172687,90.5371269 C35.5014749,62.4634848 51.1172687,73.3348557 51.1172687,46.9027926 C52.0908529,45.9515442 53.0108111,45.0100255 53.9211179,44.1980592 L53.888877,43.4207004 C58.9105508,33.1402335 65.2813979,28 73.0014183,28 C84.581449,28 88.2365853,33.3883223 91.3486809,37.9630857 C89.0215226,45.9481754 79.9904303,47.1321867 71.9657406,52.1095118 C71.0198539,51.3410043 69.8137154,50.8804131 68.5,50.8804131 C65.4624339,50.8804131 63,53.3428469 63,56.3804131 C63,59.4179792 65.4624339,61.8804131 68.5,61.8804131 C68.5837722,61.8804131 68.6671069,61.8785402 68.7499646,61.874834 Z" id="Hair-Front" fill="#191847"></path>
                </g>
                <g id="Bottom/Skinny-Jeans-1" transform="translate(60.000000, 187.000000)">
                    <polygon id="Leg" fill="#997659" points="44 0 81.6308377 123.024171 99.8601541 227.648304 114.153197 227.648304 94.8909741 0"></polygon>
                    <path d="M30.5377273,0 C33.093705,67.5468821 30.0856646,102.388787 29.5136062,108.525715 C28.9415479,114.662643 21.1081963,154.454812 2.56368736,229.708469 L17.7939923,224.477699 C47.1018596,155.458959 57.0889358,119.5887 60.4503263,110.525715 C63.8117168,101.46273 72.7394031,64.6208249 87.2333852,0 L30.5377273,0 Z" id="Leg" fill="#B28B67"></path>
                    <g id="Accessories/Shoe/Flat-Sneaker" transform="translate(0.000000, 199.000000)" fill="#E4E4E4">
                        <path d="M2.67813181,25.4019242 C1.55937727,28.3884109 1,30.6229931 1,32.1056708 C1,33.908957 1.3004142,36.5404001 1.90124261,40 C3.99318117,40 22.7937852,40 58.3030548,40 C59.768738,35.1545073 58.9226607,32.5385816 55.7648228,32.1522232 C52.606985,31.7658647 49.9837155,31.4170139 47.8950143,31.1056708 L21.6799926,19.4188835 C21.1755635,19.1940064 20.584344,19.4206282 20.359467,19.9250573 C20.35562,19.9336867 20.3518954,19.9423702 20.3482945,19.9511052 L18.6632131,24.038695 C15.7398812,25.4026522 13.3643706,26.0846307 11.5366811,26.0846307 C10.0517269,26.0846307 8.00099246,25.4849054 5.38447792,24.2854549 L5.38448339,24.285443 C4.38038273,23.8251478 3.19325534,24.2659892 2.73296014,25.2700899 C2.71312074,25.3133681 2.69483298,25.3573409 2.67813181,25.4019242 Z" id="shoe"></path>
                    </g>
                    <g id="Accessories/Shoe/Flat-Sneaker" transform="translate(94.000000, 199.000000)" fill="#E4E4E4">
                        <path d="M2.67813181,25.4019242 C1.55937727,28.3884109 1,30.6229931 1,32.1056708 C1,33.908957 1.3004142,36.5404001 1.90124261,40 C3.99318117,40 22.7937852,40 58.3030548,40 C59.768738,35.1545073 58.9226607,32.5385816 55.7648228,32.1522232 C52.606985,31.7658647 49.9837155,31.4170139 47.8950143,31.1056708 L21.6799926,19.4188835 C21.1755635,19.1940064 20.584344,19.4206282 20.359467,19.9250573 C20.35562,19.9336867 20.3518954,19.9423702 20.3482945,19.9511052 L18.6632131,24.038695 C15.7398812,25.4026522 13.3643706,26.0846307 11.5366811,26.0846307 C10.0517269,26.0846307 8.00099246,25.4849054 5.38447792,24.2854549 L5.38448339,24.285443 C4.38038273,23.8251478 3.19325534,24.2659892 2.73296014,25.2700899 C2.71312074,25.3133681 2.69483298,25.3573409 2.67813181,25.4019242 Z" id="shoe"></path>
                    </g>
                    <polygon id="Bottom" fill="#157E89" points="39 0 55 62.6795201 103.870318 62.6795201 96.5835544 0"></polygon>
                    <path d="M30,0 C24.7354392,15.7805461 23.7354392,36.6737195 27,62.6795201 L76.8703179,62.6795201 L90.5835544,0 L30,0 Z" id="Bottom" fill="#198A96"></path>
                </g>
                <g id="Body/Long-Sleeve-1" transform="translate(0.000000, 82.000000)">
                    <path d="M196,77.6170876 L232.234567,61.7041739 C238.582018,55.3790221 244.711387,50.5716141 250.622674,47.2819501 C252.390261,46.7192094 255.410101,46.5491987 252.188168,51.2551684 C248.966235,55.961138 245.78889,61.0560141 247.076289,62.7052963 C248.363689,64.3545786 252.093006,62.5342201 253.566345,65.2162765 C254.548571,67.0043141 248.262286,69.1431805 234.707491,71.6328758 L207.56994,92.4392868 L196,77.6170876 Z M49.5082829,82 L70,86.0658446 C49.3920824,124.471059 38.3404263,144.825845 36.8450319,147.130202 C33.4803944,152.315007 36.6196693,161.817238 37.7793043,166.821179 C30.5044044,168.51462 33.3734014,157.565005 24.1671562,159.851185 C15.7641225,161.937904 8.63936317,167.293169 0.803878403,160.07074 C-0.159448408,159.182785 -0.864649181,156.407288 2.41981989,154.983749 C10.6026301,151.437195 22.6920431,144.796343 24.6523424,142.218096 C27.3255608,138.702197 35.6108743,118.629498 49.5082829,82 Z" id="Skin" fill="#B28B67"></path>
                    <path d="M121.280247,9.87718027 L129.765198,7.64600959 C150.120135,24.2050747 161.602366,67.2616718 174.61267,71.9556463 C186.913385,76.3936093 203.208593,69.6320097 222.503164,60.7390322 L229.796052,73.8353428 C213.409826,95.0000245 176.298612,114.916545 159.84294,106.839809 C133.533742,93.9267871 123.046804,40.501408 121.280247,9.87718027 Z" id="Coat-Back" fill="#CE0058" transform="translate(175.538150, 58.161768) rotate(5.000000) translate(-175.538150, -58.161768) "></path>
                    <path d="M88,114 C122.671756,114 148.175573,114 164.511451,114 C168.007634,114 167.348845,108.951637 166.84345,106.404206 C161.010588,77.0037663 138.241304,45.3115155 138.241304,3.4607303 L116.1718,0 C97.917485,29.3584068 91.6048263,65.5045499 88,114 Z" id="Shirt" fill="#DDE3E9"></path>
                    <path d="M80.3687546,84.2331696 C64.7713811,112.367832 51.6609446,132.623442 41.0374452,145 L25,141.85882 C35.3305927,77.7906722 65.2466105,30.5043988 114.748053,3.81764932e-14 L115,2.9470116e-14 L123.486398,0 C143.298923,67.5369477 148.760885,112.536948 139.872285,135 L71,135 C72.0896281,118.56345 75.5833963,101.181199 80.3687561,84.2331662 Z" id="Coat-Front" fill="#CE0058"></path>
                </g>
            </g>
            <path d="M399.182763,143.015788 C393.800172,140.708187 329.755503,116.347542 327.420367,125.018649 C325.341535,132.754699 387.416313,148.686909 396.845522,151.738487 C401.992076,147.461754 402.771156,144.554188 399.182763,143.015788 Z" id="Path" fill="#C97631" transform="translate(364.381658, 137.449435) rotate(75.000000) translate(-364.381658, -137.449435) "></path>
        </g>
    </g>
</svg>