<?xml version="1.0" encoding="UTF-8"?>
<svg width="26px" height="25px" viewBox="0 0 26 25" version="1.1" xmlns="http://www.w3.org/2000/svg" xmlns:xlink="http://www.w3.org/1999/xlink">
    <!-- Generator: Sketch 52.4 (67378) - http://www.bohemiancoding.com/sketch -->
    <title>notifications ON</title>
    <desc>Created with Sketch.</desc>
    <g id="notifications-ON" stroke="none" stroke-width="1" fill="none" fill-rule="evenodd">
        <g id="bell-outline" transform="translate(-1.000000, -1.000000)" fill="#000000" opacity="0">
            <rect id="Rectangle" x="0" y="0" width="28" height="28"></rect>
        </g>
        <path d="M21.7459499,15.5275601 L19.8189887,13.5366903 L19.8189887,8.63101118 C19.8720004,4.86413709 17.2127516,1.63424332 13.5884806,1.0635061 C11.5306601,0.785065011 9.45580153,1.43061678 7.89401618,2.83522761 C6.33223083,4.23983845 5.43480022,6.26745147 5.43101135,8.40002628 L5.43101135,13.5366903 L3.5040501,15.5275601 C3.00920875,16.0444677 2.86367055,16.8155479 3.13458488,17.4850347 C3.4054992,18.1545214 4.04020974,18.5922898 4.74586957,18.5963594 L8.3428639,18.5963594 L8.3428639,18.970335 C8.44697493,21.2952284 10.3619105,23.0955043 12.625,22.9960717 C14.8880895,23.0955043 16.8030251,21.2952284 16.9071361,18.970335 L16.9071361,18.5963594 L20.5041304,18.5963594 C21.2097903,18.5922898 21.8445008,18.1545214 22.1154151,17.4850347 C22.3863295,16.8155479 22.2407913,16.0444677 21.7459499,15.5275601 Z M14.7660681,18.970335 C14.6427261,20.0694734 13.6991798,20.8741198 12.625,20.7962156 C11.5508202,20.8741198 10.6072739,20.0694734 10.4839319,18.970335 L10.4839319,18.5963594 L14.7660681,18.5963594 L14.7660681,18.970335 Z M5.67723417,16.3965033 L6.94046432,15.0985882 C7.34516836,14.6852392 7.57253157,14.123001 7.5720794,13.5366903 L7.5720794,8.40002628 C7.57325923,6.89883033 8.20549418,5.47132648 9.30634452,4.48428238 C10.3927457,3.47290561 11.8564511,3.0024358 13.3101418,3.19736654 C15.8699254,3.62440787 17.7327878,5.92309833 17.6779206,8.58701406 L17.6779206,13.5366903 C17.6746303,14.1214187 17.8980513,14.6834339 18.2988303,15.0985882 L19.5727658,16.3965033 L5.67723417,16.3965033 Z" id="Shape" fill="#00A85D" fill-rule="nonzero"></path>
    </g>
</svg>