<?xml version="1.0" encoding="UTF-8"?>
<svg width="26px" height="25px" viewBox="0 0 26 25" version="1.1" xmlns="http://www.w3.org/2000/svg" xmlns:xlink="http://www.w3.org/1999/xlink">
    <!-- Generator: Sketch 52.4 (67378) - http://www.bohemiancoding.com/sketch -->
    <title>notifications OFF</title>
    <desc>Created with Sketch.</desc>
    <g id="notifications-OFF" stroke="none" stroke-width="1" fill="none" fill-rule="evenodd">
        <g id="bell-outline" transform="translate(3.000000, 1.000000)" fill="#8B999F" fill-rule="nonzero">
            <path d="M18.7268704,14.1249405 L16.8018704,12.1892461 L16.8018704,7.41952385 C16.8548282,3.75704564 14.1982859,0.616665775 10.5777037,0.0617460763 C8.52197766,-0.208978239 6.44923086,0.418682581 4.88903509,1.78436576 C3.32883931,3.15004894 2.4323221,5.1214683 2.42853708,7.19494052 L2.42853708,12.1892461 L0.503537081,14.1249405 C0.00919937244,14.6275224 -0.136190696,15.3772327 0.134447897,16.0281652 C0.405086491,16.6790977 1.03915102,17.1047337 1.74409264,17.1086905 L5.33742597,17.1086905 L5.33742597,17.4723016 C5.44143104,19.7327625 7.35441757,21.4831452 9.61520375,21.3864683 C11.8759899,21.4831452 13.7889765,19.7327625 13.8929815,17.4723016 L13.8929815,17.1086905 L17.4863149,17.1086905 C18.1912565,17.1047337 18.825321,16.6790977 19.0959596,16.0281652 C19.3665982,15.3772327 19.2212081,14.6275224 18.7268704,14.1249405 Z M11.7540926,17.4723016 C11.6308762,18.5409783 10.6882903,19.3233246 9.61520375,19.2475794 C8.54211721,19.3233246 7.5995313,18.5409783 7.47631486,17.4723016 L7.47631486,17.1086905 L11.7540926,17.1086905 L11.7540926,17.4723016 Z M2.6745093,14.9698016 L3.93645375,13.7078572 C4.34074588,13.3059638 4.56787768,12.7593076 4.56742597,12.1892461 L4.56742597,7.19494052 C4.56860461,5.735349 5.20019607,4.34740727 6.29992597,3.3877183 C7.38522141,2.40437102 8.84743711,1.94693991 10.2996482,2.1364683 C12.8568265,2.55167452 14.7177929,4.78665863 14.6629815,7.37674608 L14.6629815,12.1892461 C14.6596946,12.7577691 14.8828881,13.3042086 15.2832593,13.7078572 L16.5558982,14.9698016 L2.6745093,14.9698016 Z" id="Shape"></path>
        </g>
    </g>
</svg>